<svg width="56" height="56" viewBox="0 0 56 56" fill="none" xmlns="http://www.w3.org/2000/svg">
<path d="M14.0002 32.6663H19.7335C19.8808 32.6663 20.0002 32.547 20.0002 32.3997V29.5997C20.0002 29.4524 19.8808 29.333 19.7335 29.333H12.9335C12.7862 29.333 12.6668 29.2136 12.6668 29.0663V26.6663V20.0997C12.6668 19.9524 12.5474 19.833 12.4002 19.833H9.60016C9.45289 19.833 9.3335 19.9524 9.3335 20.0997V32.3997C9.3335 32.547 9.45289 32.6663 9.60016 32.6663H14.0002ZM14.0002 32.6663V37.333M14.0002 37.333H17.3335M14.0002 37.333H10.6668" stroke="#444647" stroke-width="1.5" stroke-linecap="round"/>
<path d="M41.9998 32.6663H36.2665C36.1192 32.6663 35.9998 32.547 35.9998 32.3997V29.5997C35.9998 29.4524 36.1192 29.333 36.2665 29.333H43.0665C43.2138 29.333 43.3332 29.2136 43.3332 29.0663V26.6663V20.0997C43.3332 19.9524 43.4526 19.833 43.5998 19.833H46.3998C46.5471 19.833 46.6665 19.9524 46.6665 20.0997V32.3997C46.6665 32.547 46.5471 32.6663 46.3998 32.6663H41.9998ZM41.9998 32.6663V37.333M41.9998 37.333H38.6665M41.9998 37.333H45.3332" stroke="#444647" stroke-width="1.5" stroke-linecap="round"/>
<path d="M19.3335 23.333L24.6668 23.333M36.6668 23.333L31.3335 23.333M24.6668 23.333L31.3335 23.333M24.6668 23.333L24.6668 33.333M24.6668 37.333L24.6668 33.333M31.3335 23.333L31.3335 33.333M31.3335 37.333L31.3335 33.333M24.6668 33.333L31.3335 33.333" stroke="#444647" stroke-width="1.5" stroke-linecap="round"/>
</svg>
