<svg width="367" height="264" viewBox="0 0 367 264" fill="none" xmlns="http://www.w3.org/2000/svg">
<g clip-path="url(#clip0_2317_150819)">
<path fill-rule="evenodd" clip-rule="evenodd" d="M188 245.5V231.9L366.88 129V142.6L188 245.5Z" fill="#9D6427"/>
<path fill-rule="evenodd" clip-rule="evenodd" d="M367 124.5L188.12 227.78L0 119.19L178.89 15.91L367 124.5Z" fill="#E1DAD4"/>
<path d="M148.172 108.273L182.304 126.317L146.934 141.811L112.803 123.752L148.172 108.273Z" fill="url(#paint0_linear_2317_150819)"/>
<path opacity="0.5" d="M146.113 30.0411L120.786 41.0617L117.954 117.782L143.283 106.703L146.113 30.0411Z" fill="url(#paint1_linear_2317_150819)"/>
<path d="M139.355 33.1573L136.526 109.804L134.449 110.972L137.323 33.0824L139.355 33.1573Z" fill="url(#paint2_linear_2317_150819)"/>
<path d="M130.904 36.9135L128.076 113.546L125.999 114.713L128.873 36.8385L130.904 36.9135Z" fill="url(#paint3_linear_2317_150819)"/>
<path d="M145.796 38.6191L120.467 49.7127L120.404 51.4079L145.734 40.3142L145.796 38.6191Z" fill="url(#paint4_linear_2317_150819)"/>
<path d="M145.263 53.0716L119.933 64.1652L119.871 65.8604L145.2 54.7667L145.263 53.0716Z" fill="url(#paint5_linear_2317_150819)"/>
<path d="M144.73 67.5243L119.4 78.6033L119.337 80.3131L144.667 69.2194L144.73 67.5243Z" fill="url(#paint6_linear_2317_150819)"/>
<path d="M144.196 81.9768L118.867 93.0559L118.804 94.7656L144.134 83.672L144.196 81.9768Z" fill="url(#paint7_linear_2317_150819)"/>
<path d="M143.663 96.4148L118.334 107.508L118.27 109.218L143.6 98.1246L143.663 96.4148Z" fill="url(#paint8_linear_2317_150819)"/>
<path d="M155.631 38.982L180.074 51.9127L180.012 53.6079L155.569 40.6772L155.631 38.982Z" fill="url(#paint9_linear_2317_150819)"/>
<path d="M155.098 53.4345L179.541 66.3652L179.478 68.0604L155.035 55.1297L155.098 53.4345Z" fill="url(#paint10_linear_2317_150819)"/>
<path d="M154.564 67.8872L179.008 80.8033L178.945 82.5131L154.502 69.5824L154.564 67.8872Z" fill="url(#paint11_linear_2317_150819)"/>
<path d="M154.031 82.3398L178.475 95.2559L178.411 96.9656L153.968 84.0349L154.031 82.3398Z" fill="url(#paint12_linear_2317_150819)"/>
<path d="M153.498 96.7778L177.941 109.708L177.878 111.418L153.435 98.4876L153.498 96.7778Z" fill="url(#paint13_linear_2317_150819)"/>
<path d="M115.986 37.5188L112.803 123.752L148.173 108.259L151.355 22.0252L115.986 37.5042L115.986 37.5188ZM120.794 40.0668L146.121 29.0462L143.291 105.708L117.962 116.802L120.793 40.0815L120.794 40.0668Z" fill="url(#paint14_linear_2317_150819)"/>
<path d="M151.355 22.0252L148.172 108.259L182.304 126.303L185.487 40.0693L151.355 22.0252ZM156.058 29.3984L180.444 42.2977L177.615 118.959L153.229 106.06L156.058 29.3984Z" fill="url(#paint15_linear_2317_150819)"/>
<path d="M121.384 119.62C121.145 119.758 120.75 119.743 120.522 119.589C120.408 119.511 120.353 119.407 120.356 119.319C120.36 119.217 122.532 105.571 122.532 105.571L123.272 101.779L124.718 95.5108L125.927 96.0529L125.23 101.851L125.138 102.36L124.505 105.644L121.584 119.364C121.58 119.467 121.518 119.552 121.399 119.621L121.384 119.62Z" fill="#BA8250"/>
<path d="M124.505 103.259C124.501 103.361 124.573 103.407 124.648 103.352C124.738 103.296 124.801 103.182 124.804 103.079C124.808 102.977 124.737 102.931 124.662 102.986C124.572 103.041 124.509 103.156 124.505 103.259Z" fill="#787878"/>
<path d="M124.562 102.909C124.562 102.909 124.651 102.883 124.664 102.913C124.693 102.929 124.764 102.99 124.764 102.99C124.764 102.99 124.705 102.988 124.661 102.986C124.572 103.041 124.509 103.156 124.505 103.258C124.503 103.302 124.516 103.347 124.545 103.362C124.531 103.362 124.46 103.301 124.431 103.285C124.402 103.269 124.389 103.225 124.391 103.181C124.395 103.079 124.473 102.95 124.547 102.909L124.562 102.909Z" fill="#686969"/>
<path d="M124.246 105.122C124.242 105.224 124.314 105.271 124.389 105.215C124.479 105.16 124.541 105.045 124.545 104.943C124.549 104.841 124.477 104.794 124.402 104.85C124.312 104.905 124.25 105.02 124.246 105.122Z" fill="#787878"/>
<path d="M124.303 104.773C124.303 104.773 124.391 104.747 124.405 104.777C124.434 104.792 124.504 104.853 124.504 104.853C124.504 104.853 124.446 104.851 124.402 104.85C124.312 104.905 124.25 105.02 124.246 105.122C124.244 105.166 124.257 105.21 124.286 105.226C124.271 105.225 124.2 105.164 124.172 105.148C124.143 105.133 124.13 105.088 124.132 105.045C124.135 104.942 124.213 104.813 124.288 104.772L124.303 104.773Z" fill="#686969"/>
<path d="M136.536 109.936L136.419 109.932L136.451 109.465L136.568 109.469L136.536 109.936Z" fill="#686969"/>
<path d="M136.42 111.498L136.303 111.493L136.335 111.012L136.452 111.016L136.42 111.498Z" fill="#686969"/>
<path d="M134.387 109.857L134.504 109.861L134.522 109.394L134.375 109.388L134.387 109.857Z" fill="#686969"/>
<path d="M134.345 111.421L134.447 111.425L134.465 110.943L134.333 110.938L134.345 111.421Z" fill="#686969"/>
<path d="M134.745 108.89L134.786 107.779L136.365 107.837L136.323 108.977L134.745 108.89Z" fill="#C58959"/>
<path d="M151.988 117.882L150.864 100.763L148.906 100.691L150.761 117.836C150.757 117.939 150.812 118.029 150.926 118.106C151.155 118.261 151.549 118.275 151.788 118.138C151.908 118.069 151.97 117.969 151.974 117.881L151.988 117.882Z" fill="#BA8250"/>
<path d="M138.438 109.553C138.198 109.69 137.804 109.676 137.575 109.521C137.461 109.443 137.407 109.339 137.41 109.251C137.414 109.149 137.428 107.979 137.428 107.979L137.621 94.4064L138.35 86.546L139.557 86.7515L139.653 94.4667L138.779 107.839C138.779 107.839 138.641 109.194 138.637 109.297C138.634 109.399 138.572 109.484 138.452 109.553L138.438 109.553Z" fill="#BA8250"/>
<path d="M134.888 128.021C134.648 128.158 134.254 128.144 134.025 127.989C133.911 127.911 133.857 127.807 133.86 127.719C133.864 127.617 134.559 108.78 134.559 108.78L136.517 108.853C136.517 108.853 135.091 127.662 135.087 127.765C135.084 127.867 135.022 127.952 134.902 128.021L134.888 128.021Z" fill="#BA8250"/>
<path d="M150.864 100.748C150.878 100.418 150.451 100.131 149.911 100.107C149.37 100.084 148.92 100.333 148.906 100.664C148.892 100.995 149.318 101.282 149.859 101.305C150.4 101.329 150.849 101.079 150.864 100.748Z" fill="#C58959"/>
<path d="M127.286 96.5127C123.215 93.8163 123.717 90.9082 127.961 88.5186C132.205 86.1437 139.383 85.9257 143.453 88.6368L144.499 86.8755C139.556 83.6054 131.59 83.3553 126.45 86.2386C121.31 89.1218 121.341 95.0202 126.283 98.2902L127.3 96.5132L127.286 96.5127Z" fill="#BA8250"/>
<path d="M127.275 97.7098C127.555 97.2188 127.56 96.6942 127.287 96.5381C127.013 96.382 126.564 96.6535 126.284 97.1445C126.004 97.6355 125.998 98.16 126.272 98.3162C126.545 98.4723 126.994 98.2008 127.275 97.7098Z" fill="#BA8250"/>
<path d="M144.457 88.0446C144.737 87.5536 144.742 87.029 144.469 86.8729C144.195 86.7168 143.746 86.9883 143.466 87.4793C143.186 87.9703 143.181 88.4948 143.454 88.651C143.728 88.8071 144.177 88.5356 144.457 88.0446Z" fill="#BA8250"/>
<path d="M127.703 102.645L125.123 102.359L124.473 105.716L130.069 105.542L127.703 102.645Z" fill="#B77A49"/>
<path d="M125.258 101.486L127.342 101.724L127.703 102.645L125.123 102.359L125.215 101.851L125.258 101.486Z" fill="#C58959"/>
<path d="M139.379 93.564L137.99 93.5128L137.958 94.4042L139.346 94.4554L139.379 93.564Z" fill="#C58959"/>
<path d="M149.002 101.631L148.286 101.605L148.54 100.663L148.905 100.691L149.002 101.631Z" fill="#A08B6B"/>
<path d="M149.002 101.631L148.286 101.605L146.004 104.374L149.339 104.79L149.002 101.631Z" fill="#B77A49"/>
<path d="M136.195 109.25C135.807 109.47 135.193 109.448 134.807 109.199C134.436 108.951 134.45 108.571 134.838 108.352C135.227 108.132 135.841 108.155 136.227 108.403C136.613 108.651 136.584 109.031 136.195 109.25Z" fill="#C58959"/>
<path d="M149.659 102.475C149.655 102.577 149.581 102.618 149.51 102.557C149.424 102.495 149.37 102.376 149.374 102.274C149.378 102.172 149.452 102.131 149.523 102.192C149.609 102.253 149.663 102.373 149.659 102.475Z" fill="#787878"/>
<path d="M149.628 102.122C149.628 102.122 149.542 102.09 149.526 102.119C149.496 102.132 149.421 102.188 149.421 102.188C149.421 102.188 149.479 102.19 149.523 102.192C149.609 102.253 149.663 102.372 149.659 102.475C149.657 102.519 149.641 102.562 149.611 102.575C149.626 102.576 149.701 102.52 149.731 102.507C149.761 102.493 149.777 102.45 149.779 102.406C149.782 102.304 149.714 102.169 149.643 102.123L149.628 102.122Z" fill="#686969"/>
<path d="M149.78 104.352C149.776 104.455 149.702 104.496 149.631 104.435C149.545 104.373 149.491 104.254 149.495 104.152C149.499 104.049 149.573 104.008 149.644 104.069C149.73 104.131 149.784 104.25 149.78 104.352Z" fill="#787878"/>
<path d="M149.749 104C149.749 104 149.663 103.967 149.647 103.996C149.617 104.01 149.542 104.065 149.542 104.065C149.542 104.065 149.6 104.068 149.644 104.069C149.73 104.131 149.784 104.25 149.78 104.352C149.779 104.396 149.762 104.439 149.733 104.453C149.747 104.453 149.822 104.398 149.852 104.384C149.882 104.371 149.898 104.327 149.9 104.283C149.904 104.181 149.835 104.047 149.764 104L149.749 104Z" fill="#686969"/>
<path d="M147.96 102.529C149.264 100.485 149.162 98.0956 145.501 96.1899C143.721 95.2608 140.509 94.2496 137.32 94.2344C134.1 94.2472 131.871 95.1746 130.317 96.0538C128.763 96.9183 127.077 98.2024 126.77 100.167C126.552 102.105 127.911 104.145 129.302 105.308C132.126 107.695 136.009 107.956 139.456 107.322C140.635 107.102 141.762 106.705 142.807 106.143C143.285 105.883 145.242 104.785 145.691 104.523C146.723 103.917 147.494 103.258 147.944 102.558L147.96 102.529Z" fill="#BC7F55"/>
<path d="M148.715 100.289C148.687 101.049 148.41 101.814 147.96 102.529C147.509 103.244 146.738 103.903 145.707 104.495C145.258 104.756 143.301 105.854 142.823 106.115C141.778 106.676 140.65 107.088 139.472 107.294C136.025 107.913 132.142 107.667 129.318 105.28C128.026 104.193 126.748 102.346 126.772 100.518C126.772 100.518 126.757 100.927 126.752 101.044C126.714 102.872 128.006 104.734 129.297 105.835C132.121 108.222 136.004 108.482 139.452 107.849C140.63 107.629 141.757 107.232 142.802 106.67C143.28 106.41 145.238 105.311 145.686 105.05C146.718 104.444 147.489 103.785 147.939 103.084C148.374 102.398 148.665 101.662 148.692 100.932C148.7 100.698 148.715 100.303 148.715 100.303L148.715 100.289Z" fill="#B77A49"/>
<path d="M130.753 106.05C131.394 106.132 166.683 88.8504 166.683 88.8504L177.879 111.404L157.641 120.52L130.753 106.05Z" fill="white"/>
<path d="M154.937 118.854L154.821 121.996L130.787 108.7L130.753 106.05L154.937 118.854Z" fill="#DCDAD9"/>
<path d="M151.355 22.0252L185.487 40.0839L150.117 55.5629L115.986 37.5188L151.355 22.0252Z" fill="url(#paint16_linear_2317_150819)"/>
<path d="M173.455 50.0587L170.627 126.691L168.55 127.858L171.424 49.9837L173.455 50.0587Z" fill="url(#paint17_linear_2317_150819)"/>
<path d="M165.006 53.8003L162.178 130.433L160.1 131.6L162.975 53.7253L165.006 53.8003Z" fill="url(#paint18_linear_2317_150819)"/>
<path d="M115.985 37.5188L112.803 123.752L114.496 124.649L124.529 129.95L146.92 141.796L150.103 55.5623L115.971 37.5183L115.985 37.5188ZM120.443 122.922L117.844 121.553L120.674 44.8914L145.06 57.7907L142.23 134.452L134.293 130.252L120.443 122.922Z" fill="url(#paint19_linear_2317_150819)"/>
<path d="M150.117 55.5628L146.935 141.796L182.304 126.303L185.487 40.0693L150.118 55.5482L150.117 55.5628ZM154.925 58.1109L180.253 47.0903L177.423 123.752L152.093 134.846L154.925 58.1255L154.925 58.1109Z" fill="url(#paint20_linear_2317_150819)"/>
<path d="M179.899 56.662L154.569 67.7557L154.507 69.4508L179.836 58.3718L179.899 56.662Z" fill="url(#paint21_linear_2317_150819)"/>
<path d="M179.366 71.1145L154.036 82.2082L153.973 83.9033L179.302 72.8243L179.366 71.1145Z" fill="url(#paint22_linear_2317_150819)"/>
<path d="M178.832 85.5672L153.502 96.6609L153.44 98.356L178.77 87.2624L178.832 85.5672Z" fill="url(#paint23_linear_2317_150819)"/>
<path d="M178.299 100.02L152.969 111.113L152.906 112.809L178.236 101.715L178.299 100.02Z" fill="url(#paint24_linear_2317_150819)"/>
<path d="M177.765 114.472L152.435 125.566L152.373 127.261L177.703 116.167L177.765 114.472Z" fill="url(#paint25_linear_2317_150819)"/>
<path opacity="0.5" d="M180.252 47.0904L154.925 58.111L152.093 134.831L177.423 123.737L180.252 47.0904Z" fill="url(#paint26_linear_2317_150819)"/>
<path opacity="0.5" d="M120.616 44.8601L145.062 57.7323L142.23 134.452L117.787 121.522L120.616 44.8601Z" fill="url(#paint27_linear_2317_150819)"/>
<path d="M178.616 24.041L164.996 16.7924C160.03 14.1508 153.791 13.9205 148.644 16.1743L117.945 29.616L145.646 40.7206L145.468 40.7726L150.236 52.743L185.605 37.2641L185.661 34.9687C185.764 30.5825 183.093 26.4305 178.63 24.0562L178.616 24.041Z" fill="url(#paint28_linear_2317_150819)"/>
<path d="M116.132 32.7392L116.061 34.6681L150.193 52.7122L150.296 49.9211C150.448 45.8147 147.972 41.9187 143.781 39.7153L124.031 29.2699C120.643 27.4767 116.256 29.3927 116.133 32.7245L116.132 32.7392Z" fill="url(#paint29_linear_2317_150819)"/>
<path d="M137.259 86.7693L143.904 90.2924L143.824 92.4698L137.179 88.9467L137.259 86.7693Z" fill="url(#paint30_linear_2317_150819)"/>
<path d="M146.211 89.2361L143.904 90.2923L143.824 92.4697L146.129 91.4573L146.211 89.2361Z" fill="url(#paint31_linear_2317_150819)"/>
<path d="M146.211 89.2361L145.42 88.8703L143.933 89.5032L138.107 86.3908L137.259 86.7692L143.904 90.2923L146.211 89.2361Z" fill="url(#paint32_linear_2317_150819)"/>
<path d="M120.593 34.7914L120.54 36.2235L145.759 49.5633L145.835 47.5028C145.947 44.4632 144.107 41.5857 141.02 39.9646L126.438 32.2561C123.94 30.9347 120.698 32.3515 120.607 34.8066L120.593 34.7914Z" fill="url(#paint33_linear_2317_150819)"/>
<path d="M182.31 126.552L216.442 144.596L181.072 160.09L146.941 142.031L182.31 126.552Z" fill="url(#paint34_linear_2317_150819)"/>
<path opacity="0.5" d="M180.265 48.3205L154.938 59.3411L152.107 136.061L177.436 124.982L180.265 48.3205Z" fill="url(#paint35_linear_2317_150819)"/>
<path d="M173.493 51.4362L170.664 128.083L168.587 129.25L171.461 51.3613L173.493 51.4362Z" fill="url(#paint36_linear_2317_150819)"/>
<path d="M165.042 55.1925L162.214 131.825L160.137 132.992L163.011 55.1175L165.042 55.1925Z" fill="url(#paint37_linear_2317_150819)"/>
<path d="M179.949 56.8986L154.605 67.9918L154.542 69.6869L179.887 58.5938L179.949 56.8986Z" fill="url(#paint38_linear_2317_150819)"/>
<path d="M179.416 71.3512L154.072 82.4443L154.009 84.1395L179.353 73.0463L179.416 71.3512Z" fill="url(#paint39_linear_2317_150819)"/>
<path d="M178.883 85.8037L153.539 96.8822L153.476 98.592L178.82 87.4989L178.883 85.8037Z" fill="url(#paint40_linear_2317_150819)"/>
<path d="M178.349 100.256L153.005 111.335L152.942 113.045L178.287 101.952L178.349 100.256Z" fill="url(#paint41_linear_2317_150819)"/>
<path d="M177.816 114.694L152.472 125.788L152.409 127.497L177.753 116.404L177.816 114.694Z" fill="url(#paint42_linear_2317_150819)"/>
<path d="M189.769 57.2611L214.227 70.1923L214.165 71.8875L189.707 58.9562L189.769 57.2611Z" fill="url(#paint43_linear_2317_150819)"/>
<path d="M189.236 71.7136L213.694 84.6448L213.631 86.34L189.173 73.4088L189.236 71.7136Z" fill="url(#paint44_linear_2317_150819)"/>
<path d="M188.702 86.1662L213.161 99.0828L213.098 100.793L188.64 87.8613L188.702 86.1662Z" fill="url(#paint45_linear_2317_150819)"/>
<path d="M188.169 100.619L212.627 113.535L212.564 115.245L188.106 102.314L188.169 100.619Z" fill="url(#paint46_linear_2317_150819)"/>
<path d="M187.636 115.057L212.094 127.988L212.031 129.698L187.573 116.767L187.636 115.057Z" fill="url(#paint47_linear_2317_150819)"/>
<path d="M150.124 55.7978L146.941 142.031L182.311 126.538L185.493 40.3043L150.124 55.7832L150.124 55.7978ZM154.932 58.3459L180.259 47.3253L177.429 123.987L152.099 135.081L154.931 58.3605L154.932 58.3459Z" fill="url(#paint48_linear_2317_150819)"/>
<path d="M185.493 40.3043L182.31 126.538L216.442 144.582L219.625 58.3483L185.493 40.3043ZM190.196 47.6774L214.582 60.5767L211.753 137.238L187.367 124.339L190.196 47.6774Z" fill="url(#paint49_linear_2317_150819)"/>
<path d="M155.522 137.899C155.283 138.037 154.888 138.022 154.66 137.868C154.546 137.79 154.491 137.686 154.494 137.598C154.498 137.496 156.67 123.85 156.67 123.85L157.41 120.058L158.856 113.79L160.065 114.332L159.368 120.13L159.276 120.639L158.643 123.923L155.722 137.643C155.718 137.746 155.656 137.831 155.537 137.9L155.522 137.899Z" fill="#BA8250"/>
<path d="M158.658 121.538C158.654 121.64 158.725 121.687 158.801 121.631C158.89 121.576 158.953 121.461 158.957 121.359C158.961 121.257 158.889 121.21 158.814 121.266C158.724 121.321 158.662 121.436 158.658 121.538Z" fill="#787878"/>
<path d="M158.7 121.188C158.7 121.188 158.789 121.162 158.802 121.192C158.831 121.208 158.902 121.269 158.902 121.269C158.902 121.269 158.843 121.267 158.799 121.265C158.71 121.32 158.647 121.435 158.643 121.537C158.641 121.581 158.654 121.626 158.683 121.641C158.668 121.641 158.598 121.58 158.569 121.564C158.54 121.548 158.527 121.504 158.529 121.46C158.533 121.358 158.61 121.229 158.685 121.188L158.7 121.188Z" fill="#686969"/>
<path d="M158.399 123.401C158.395 123.504 158.466 123.55 158.542 123.495C158.631 123.439 158.694 123.325 158.698 123.222C158.702 123.12 158.63 123.073 158.555 123.129C158.465 123.184 158.402 123.299 158.399 123.401Z" fill="#787878"/>
<path d="M158.455 123.052C158.455 123.052 158.544 123.026 158.558 123.056C158.586 123.072 158.657 123.133 158.657 123.133C158.657 123.133 158.599 123.131 158.555 123.129C158.465 123.185 158.402 123.299 158.398 123.402C158.397 123.445 158.41 123.49 158.438 123.505C158.424 123.505 158.353 123.444 158.324 123.428C158.296 123.412 158.283 123.368 158.284 123.324C158.288 123.222 158.366 123.093 158.441 123.052L158.455 123.052Z" fill="#686969"/>
<path d="M170.674 128.215L170.557 128.211L170.589 127.744L170.72 127.749L170.674 128.215Z" fill="#686969"/>
<path d="M170.558 129.777L170.441 129.772L170.473 129.291L170.605 129.296L170.558 129.777Z" fill="#686969"/>
<path d="M168.525 128.136L168.642 128.14L168.66 127.673L168.513 127.667L168.525 128.136Z" fill="#686969"/>
<path d="M168.482 129.7L168.585 129.704L168.602 129.222L168.486 129.217L168.482 129.7Z" fill="#686969"/>
<path d="M168.898 127.169L168.939 126.059L170.502 126.116L170.46 127.256L168.898 127.169Z" fill="#C58959"/>
<path d="M186.126 136.161L185.002 119.042L183.044 118.97L184.899 136.116C184.895 136.218 184.95 136.308 185.064 136.385C185.293 136.54 185.687 136.554 185.926 136.417C186.046 136.348 186.108 136.248 186.112 136.16L186.126 136.161Z" fill="#BA8250"/>
<path d="M172.59 127.832C172.351 127.97 171.956 127.955 171.728 127.801C171.614 127.723 171.559 127.619 171.562 127.531C171.566 127.429 171.58 126.259 171.58 126.259L171.774 112.686L172.503 104.826L173.71 105.031L173.806 112.746L172.932 126.118C172.932 126.118 172.794 127.474 172.79 127.576C172.786 127.679 172.724 127.764 172.605 127.833L172.59 127.832Z" fill="#BA8250"/>
<path d="M169.026 146.3C168.787 146.437 168.392 146.423 168.164 146.268C168.05 146.191 167.995 146.086 167.998 145.998C168.002 145.896 168.697 127.06 168.697 127.06L170.655 127.132C170.655 127.132 169.23 145.941 169.226 146.044C169.222 146.146 169.16 146.232 169.041 146.3L169.026 146.3Z" fill="#BA8250"/>
<path d="M184.994 119.029C185.009 118.699 184.582 118.411 184.041 118.388C183.501 118.365 183.051 118.614 183.037 118.945C183.023 119.276 183.449 119.563 183.99 119.586C184.53 119.609 184.98 119.36 184.994 119.029Z" fill="#C58959"/>
<path d="M161.423 114.806C157.352 112.11 157.854 109.202 162.098 106.812C166.342 104.437 173.52 104.219 177.591 106.93L178.636 105.169C173.694 101.899 165.728 101.649 160.588 104.532C155.447 107.415 155.478 113.314 160.421 116.584L161.438 114.807L161.423 114.806Z" fill="#BA8250"/>
<path d="M161.418 115.969C161.698 115.478 161.703 114.954 161.43 114.798C161.156 114.641 160.707 114.913 160.427 115.404C160.147 115.895 160.141 116.419 160.415 116.576C160.689 116.732 161.137 116.46 161.418 115.969Z" fill="#BA8250"/>
<path d="M178.592 106.331C178.872 105.84 178.878 105.316 178.604 105.16C178.331 105.004 177.882 105.275 177.602 105.766C177.321 106.257 177.316 106.782 177.59 106.938C177.863 107.094 178.312 106.822 178.592 106.331Z" fill="#BA8250"/>
<path d="M161.841 120.924L159.261 120.638L158.611 123.995L164.207 123.821L161.841 120.924Z" fill="#B77A49"/>
<path d="M159.411 119.766L161.48 120.003L161.841 120.924L159.261 120.638L159.353 120.13L159.411 119.766Z" fill="#C58959"/>
<path d="M173.517 111.843L172.128 111.792L172.096 112.683L173.484 112.735L173.517 111.843Z" fill="#C58959"/>
<path d="M183.141 119.91L182.439 119.884L182.679 118.942L183.043 118.97L183.141 119.91Z" fill="#A08B6B"/>
<path d="M183.14 119.91L182.439 119.884L180.142 122.653L183.492 123.069L183.14 119.91Z" fill="#B77A49"/>
<path d="M170.333 127.53C169.945 127.749 169.331 127.727 168.945 127.478C168.574 127.231 168.588 126.851 168.976 126.631C169.365 126.411 169.979 126.434 170.365 126.682C170.751 126.93 170.722 127.31 170.333 127.53Z" fill="#C58959"/>
<path d="M183.797 120.754C183.793 120.856 183.719 120.897 183.648 120.836C183.562 120.775 183.508 120.656 183.512 120.553C183.516 120.451 183.59 120.41 183.661 120.471C183.747 120.533 183.801 120.652 183.797 120.754Z" fill="#787878"/>
<path d="M183.766 120.402C183.766 120.402 183.68 120.369 183.664 120.398C183.634 120.411 183.559 120.467 183.559 120.467C183.559 120.467 183.617 120.469 183.661 120.471C183.747 120.533 183.801 120.652 183.797 120.754C183.795 120.798 183.779 120.841 183.749 120.855C183.764 120.855 183.839 120.799 183.869 120.786C183.899 120.772 183.915 120.729 183.917 120.685C183.92 120.583 183.852 120.449 183.781 120.402L183.766 120.402Z" fill="#686969"/>
<path d="M183.918 122.631C183.914 122.734 183.84 122.775 183.769 122.714C183.683 122.652 183.629 122.533 183.633 122.431C183.637 122.328 183.711 122.287 183.782 122.348C183.868 122.41 183.922 122.529 183.918 122.631Z" fill="#787878"/>
<path d="M183.887 122.279C183.887 122.279 183.801 122.247 183.785 122.275C183.755 122.289 183.68 122.345 183.68 122.345C183.68 122.345 183.738 122.347 183.782 122.348C183.868 122.41 183.922 122.529 183.918 122.631C183.916 122.675 183.9 122.719 183.87 122.732C183.885 122.733 183.96 122.677 183.99 122.663C184.02 122.65 184.036 122.606 184.038 122.563C184.041 122.46 183.973 122.326 183.902 122.28L183.887 122.279Z" fill="#686969"/>
<path d="M182.098 120.808C183.402 118.764 183.3 116.375 179.639 114.469C177.859 113.54 174.648 112.529 171.458 112.514C168.238 112.526 166.009 113.454 164.455 114.333C162.901 115.198 161.215 116.482 160.908 118.446C160.69 120.384 162.049 122.424 163.44 123.588C166.264 125.975 170.147 126.235 173.594 125.601C174.773 125.381 175.9 124.984 176.945 124.423C177.423 124.162 179.38 123.064 179.829 122.802C180.861 122.197 181.632 121.537 182.082 120.837L182.098 120.808Z" fill="#BC7F55"/>
<path d="M182.853 118.568C182.825 119.328 182.548 120.093 182.097 120.808C181.647 121.523 180.876 122.182 179.844 122.774C179.396 123.035 177.438 124.133 176.96 124.394C175.915 124.955 174.788 125.367 173.61 125.573C170.163 126.192 166.279 125.946 163.455 123.559C162.164 122.472 160.886 120.625 160.909 118.797C160.909 118.797 160.894 119.206 160.89 119.323C160.852 121.151 162.144 123.013 163.435 124.114C166.259 126.501 170.142 126.762 173.589 126.128C174.768 125.908 175.895 125.511 176.94 124.949C177.418 124.689 179.375 123.59 179.824 123.329C180.856 122.723 181.627 122.064 182.077 121.363C182.512 120.677 182.802 119.941 182.829 119.211C182.838 118.977 182.853 118.582 182.853 118.582L182.853 118.568Z" fill="#B77A49"/>
<path d="M164.905 124.329C165.546 124.412 200.836 107.13 200.836 107.13L212.032 129.683L191.794 138.799L164.905 124.329Z" fill="white"/>
<path d="M189.075 137.133L188.959 140.275L164.925 126.979L164.905 124.329L189.075 137.133Z" fill="#DCDAD9"/>
<path d="M185.493 40.3043L219.625 58.363L184.255 73.8419L150.124 55.7978L185.493 40.3043Z" fill="url(#paint50_linear_2317_150819)"/>
<path d="M207.608 68.3383L204.78 144.971L202.688 146.137L205.562 68.2628L207.608 68.3383Z" fill="url(#paint51_linear_2317_150819)"/>
<path d="M199.144 72.0793L196.315 148.712L194.238 149.879L197.113 72.0043L199.144 72.0793Z" fill="url(#paint52_linear_2317_150819)"/>
<path d="M150.123 55.7978L146.941 142.031L148.634 142.928L158.667 148.229L181.058 160.075L184.241 73.8414L150.109 55.7973L150.123 55.7978ZM154.58 141.201L151.982 139.832L154.812 63.1704L179.198 76.0697L176.368 152.731L168.431 148.531L154.58 141.201Z" fill="url(#paint53_linear_2317_150819)"/>
<path d="M184.255 73.8418L181.072 160.075L216.442 144.582L219.625 58.3483L184.256 73.8272L184.255 73.8418ZM189.063 76.3899L214.39 65.3693L211.561 142.031L186.231 153.125L189.063 76.4045L189.063 76.3899Z" fill="url(#paint54_linear_2317_150819)"/>
<path d="M214.052 74.9416L188.707 86.0347L188.645 87.7299L213.989 76.6513L214.052 74.9416Z" fill="url(#paint55_linear_2317_150819)"/>
<path d="M213.518 89.3941L188.174 100.487L188.111 102.182L213.455 91.1039L213.518 89.3941Z" fill="url(#paint56_linear_2317_150819)"/>
<path d="M212.985 103.847L187.64 114.94L187.578 116.635L212.922 105.542L212.985 103.847Z" fill="url(#paint57_linear_2317_150819)"/>
<path d="M212.451 118.299L187.107 129.393L187.044 131.088L212.389 119.995L212.451 118.299Z" fill="url(#paint58_linear_2317_150819)"/>
<path d="M211.918 132.752L186.574 143.845L186.511 145.54L211.855 134.447L211.918 132.752Z" fill="url(#paint59_linear_2317_150819)"/>
<path opacity="0.5" d="M214.405 65.37L189.063 76.39L186.232 153.11L211.576 142.017L214.405 65.37Z" fill="url(#paint60_linear_2317_150819)"/>
<path opacity="0.5" d="M154.754 63.1536L179.2 76.0113L176.368 152.731L151.925 139.801L154.754 63.1536Z" fill="url(#paint61_linear_2317_150819)"/>
<path d="M212.753 42.32L199.134 35.0714C194.168 32.4298 187.928 32.1995 182.782 34.4533L152.083 47.895L179.784 58.9997L179.606 59.0516L184.374 71.022L219.743 55.5431L219.798 53.2477C219.902 48.8615 217.231 44.7095 212.767 42.3352L212.753 42.32Z" fill="url(#paint62_linear_2317_150819)"/>
<path d="M150.27 51.0182L150.199 52.9471L184.331 70.9912L184.434 68.2001C184.586 64.0937 182.11 60.1977 177.919 57.9944L158.169 47.549C154.781 45.7557 150.394 47.6717 150.271 51.0036L150.27 51.0182Z" fill="url(#paint63_linear_2317_150819)"/>
<path d="M171.397 105.048L178.057 108.572L177.976 110.749L171.316 107.226L171.397 105.048Z" fill="url(#paint64_linear_2317_150819)"/>
<path d="M180.349 107.515L178.056 108.572L177.976 110.749L180.267 109.736L180.349 107.515Z" fill="url(#paint65_linear_2317_150819)"/>
<path d="M180.349 107.515L179.558 107.149L178.086 107.783L172.245 104.67L171.397 105.048L178.057 108.572L180.349 107.515Z" fill="url(#paint66_linear_2317_150819)"/>
<path d="M154.745 53.071L154.693 54.5031L179.911 67.8428L179.987 65.7823C180.099 62.7428 178.259 59.8653 175.173 58.2441L160.59 50.5356C158.093 49.2142 154.85 50.6311 154.76 53.0861L154.745 53.071Z" fill="url(#paint67_linear_2317_150819)"/>
<path d="M216.448 144.831L250.594 162.875L215.21 178.368L181.078 160.309L216.448 144.831Z" fill="url(#paint68_linear_2317_150819)"/>
<path opacity="0.5" d="M214.403 66.5989L189.076 77.6194L186.245 154.34L211.574 143.26L214.403 66.5989Z" fill="url(#paint69_linear_2317_150819)"/>
<path d="M207.645 69.7151L204.816 146.362L202.724 147.529L205.599 69.6396L207.645 69.7151Z" fill="url(#paint70_linear_2317_150819)"/>
<path d="M199.18 73.4707L196.352 150.103L194.275 151.27L197.149 73.3957L199.18 73.4707Z" fill="url(#paint71_linear_2317_150819)"/>
<path d="M214.087 75.1768L188.757 86.2705L188.695 87.9657L214.024 76.872L214.087 75.1768Z" fill="url(#paint72_linear_2317_150819)"/>
<path d="M213.554 89.6295L188.224 100.723L188.161 102.418L213.491 91.3246L213.554 89.6295Z" fill="url(#paint73_linear_2317_150819)"/>
<path d="M213.02 104.082L187.691 115.161L187.628 116.871L212.958 105.777L213.02 104.082Z" fill="url(#paint74_linear_2317_150819)"/>
<path d="M212.487 118.535L187.158 129.614L187.094 131.324L212.424 120.23L212.487 118.535Z" fill="url(#paint75_linear_2317_150819)"/>
<path d="M211.954 132.973L186.624 144.066L186.561 145.776L211.891 134.682L211.954 132.973Z" fill="url(#paint76_linear_2317_150819)"/>
<path d="M223.922 75.5398L248.365 88.4705L248.302 90.1657L223.859 77.235L223.922 75.5398Z" fill="url(#paint77_linear_2317_150819)"/>
<path d="M223.388 89.9924L247.831 102.923L247.769 104.618L223.326 91.6876L223.388 89.9924Z" fill="url(#paint78_linear_2317_150819)"/>
<path d="M222.855 104.445L247.298 117.361L247.235 119.071L222.792 106.14L222.855 104.445Z" fill="url(#paint79_linear_2317_150819)"/>
<path d="M222.321 118.898L246.765 131.814L246.702 133.524L222.259 120.593L222.321 118.898Z" fill="url(#paint80_linear_2317_150819)"/>
<path d="M221.788 133.336L246.232 146.266L246.168 147.976L221.725 135.045L221.788 133.336Z" fill="url(#paint81_linear_2317_150819)"/>
<path d="M184.261 74.076L181.079 160.309L216.448 144.816L219.631 58.5825L184.262 74.0614L184.261 74.076ZM189.069 76.6241L214.396 65.6035L211.567 142.265L186.237 153.359L189.069 76.6387L189.069 76.6241Z" fill="url(#paint82_linear_2317_150819)"/>
<path d="M219.631 58.5825L216.448 144.816L250.58 162.86L253.763 76.6266L219.631 58.5825ZM224.334 65.9556L248.72 78.8549L245.89 155.517L221.505 142.617L224.334 65.9556Z" fill="url(#paint83_linear_2317_150819)"/>
<path d="M189.66 156.178C189.421 156.315 189.026 156.301 188.798 156.146C188.684 156.068 188.629 155.964 188.632 155.876C188.636 155.774 190.808 142.128 190.808 142.128L191.548 138.336L192.994 132.068L194.203 132.61L193.506 138.409L193.414 138.917L192.781 142.201L189.86 155.922C189.856 156.024 189.794 156.109 189.675 156.178L189.66 156.178Z" fill="#BA8250"/>
<path d="M192.796 139.816C192.792 139.919 192.863 139.965 192.939 139.909C193.028 139.854 193.091 139.739 193.095 139.637C193.099 139.535 193.027 139.488 192.952 139.544C192.862 139.599 192.799 139.714 192.796 139.816Z" fill="#787878"/>
<path d="M192.852 139.467C192.852 139.467 192.941 139.441 192.954 139.471C192.983 139.487 193.054 139.548 193.054 139.548C193.054 139.548 192.996 139.546 192.952 139.544C192.862 139.599 192.799 139.714 192.795 139.816C192.794 139.86 192.807 139.904 192.835 139.92C192.821 139.92 192.75 139.858 192.721 139.843C192.693 139.827 192.68 139.783 192.681 139.739C192.685 139.637 192.763 139.508 192.838 139.467L192.852 139.467Z" fill="#686969"/>
<path d="M192.536 141.68C192.532 141.782 192.604 141.829 192.679 141.773C192.769 141.718 192.832 141.603 192.835 141.501C192.839 141.398 192.768 141.352 192.692 141.408C192.603 141.463 192.54 141.578 192.536 141.68Z" fill="#787878"/>
<path d="M192.593 141.331C192.593 141.331 192.682 141.305 192.695 141.334C192.724 141.35 192.795 141.411 192.795 141.411C192.795 141.411 192.736 141.409 192.692 141.407C192.603 141.463 192.54 141.577 192.536 141.68C192.535 141.724 192.548 141.768 192.576 141.784C192.562 141.783 192.491 141.722 192.462 141.706C192.433 141.691 192.42 141.646 192.422 141.602C192.426 141.5 192.504 141.371 192.578 141.33L192.593 141.331Z" fill="#686969"/>
<path d="M204.811 146.494L204.694 146.489L204.726 146.022L204.858 146.027L204.811 146.494Z" fill="#686969"/>
<path d="M204.695 148.055L204.578 148.051L204.611 147.569L204.742 147.574L204.695 148.055Z" fill="#686969"/>
<path d="M202.663 146.414L202.78 146.419L202.797 145.951L202.666 145.946L202.663 146.414Z" fill="#686969"/>
<path d="M202.62 147.978L202.722 147.982L202.74 147.5L202.623 147.496L202.62 147.978Z" fill="#686969"/>
<path d="M203.035 145.448L203.076 144.337L204.64 144.395L204.598 145.534L203.035 145.448Z" fill="#C58959"/>
<path d="M220.264 154.439L219.139 137.32L217.181 137.248L219.036 154.394C219.032 154.496 219.087 154.586 219.202 154.663C219.43 154.818 219.825 154.833 220.064 154.695C220.183 154.626 220.246 154.526 220.249 154.438L220.264 154.439Z" fill="#BA8250"/>
<path d="M206.728 146.111C206.488 146.248 206.094 146.233 205.866 146.079C205.751 146.001 205.697 145.897 205.7 145.809C205.704 145.707 205.718 144.537 205.718 144.537L205.911 130.964L206.64 123.104L207.847 123.309L207.943 131.025L207.069 144.396C207.069 144.396 206.931 145.752 206.927 145.855C206.924 145.957 206.862 146.042 206.742 146.111L206.728 146.111Z" fill="#BA8250"/>
<path d="M203.164 164.578C202.924 164.715 202.53 164.701 202.301 164.546C202.187 164.469 202.132 164.364 202.136 164.277C202.139 164.174 202.835 145.338 202.835 145.338L204.793 145.41C204.793 145.41 203.367 164.22 203.363 164.322C203.36 164.424 203.298 164.51 203.178 164.578L203.164 164.578Z" fill="#BA8250"/>
<path d="M219.139 137.325C219.153 136.994 218.727 136.707 218.186 136.684C217.645 136.66 217.196 136.91 217.181 137.241C217.167 137.571 217.594 137.858 218.134 137.882C218.675 137.905 219.125 137.656 219.139 137.325Z" fill="#C58959"/>
<path d="M195.56 133.085C191.489 130.388 191.992 127.48 196.236 125.091C200.479 122.716 207.658 122.498 211.728 125.209L212.774 123.447C207.831 120.177 199.865 119.927 194.725 122.811C189.585 125.694 189.616 131.592 194.558 134.862L195.575 133.085L195.56 133.085Z" fill="#BA8250"/>
<path d="M195.567 134.256C195.847 133.765 195.853 133.24 195.579 133.084C195.306 132.928 194.857 133.199 194.576 133.69C194.296 134.181 194.291 134.706 194.564 134.862C194.838 135.018 195.287 134.747 195.567 134.256Z" fill="#BA8250"/>
<path d="M212.749 124.605C213.029 124.114 213.034 123.59 212.761 123.434C212.487 123.277 212.038 123.549 211.758 124.04C211.478 124.531 211.472 125.055 211.746 125.212C212.019 125.368 212.468 125.096 212.749 124.605Z" fill="#BA8250"/>
<path d="M195.979 139.202L193.399 138.917L192.748 142.273L198.345 142.099L195.979 139.202Z" fill="#B77A49"/>
<path d="M193.548 138.044L195.617 138.281L195.978 139.202L193.399 138.917L193.505 138.408L193.548 138.044Z" fill="#C58959"/>
<path d="M207.654 130.121L206.266 130.07L206.233 130.962L207.621 131.013L207.654 130.121Z" fill="#C58959"/>
<path d="M217.293 138.189L216.577 138.162L216.816 137.22L217.181 137.248L217.293 138.189Z" fill="#A08B6B"/>
<path d="M217.293 138.189L216.577 138.162L214.294 140.932L217.63 141.347L217.293 138.189Z" fill="#B77A49"/>
<path d="M204.485 145.808C204.097 146.028 203.483 146.005 203.097 145.757C202.725 145.509 202.74 145.129 203.128 144.91C203.517 144.69 204.13 144.712 204.516 144.961C204.902 145.209 204.874 145.589 204.485 145.808Z" fill="#C58959"/>
<path d="M217.934 139.032C217.931 139.134 217.856 139.176 217.785 139.114C217.699 139.053 217.645 138.934 217.649 138.831C217.653 138.729 217.728 138.688 217.798 138.749C217.884 138.811 217.938 138.93 217.934 139.032Z" fill="#787878"/>
<path d="M217.918 138.68C217.918 138.68 217.832 138.648 217.816 138.676C217.786 138.69 217.711 138.746 217.711 138.746C217.711 138.746 217.769 138.748 217.813 138.75C217.899 138.811 217.953 138.93 217.949 139.033C217.948 139.076 217.931 139.12 217.902 139.133C217.916 139.134 217.991 139.078 218.021 139.065C218.051 139.051 218.067 139.008 218.069 138.964C218.072 138.862 218.004 138.727 217.933 138.681L217.918 138.68Z" fill="#686969"/>
<path d="M218.056 140.91C218.052 141.012 217.977 141.053 217.906 140.992C217.821 140.93 217.767 140.811 217.77 140.709C217.774 140.607 217.849 140.565 217.92 140.627C218.005 140.688 218.059 140.807 218.056 140.91Z" fill="#787878"/>
<path d="M218.025 140.557C218.025 140.557 217.938 140.525 217.922 140.553C217.893 140.567 217.817 140.623 217.817 140.623C217.817 140.623 217.876 140.625 217.92 140.626C218.005 140.688 218.059 140.807 218.056 140.909C218.054 140.953 218.038 140.997 218.008 141.01C218.023 141.011 218.098 140.955 218.128 140.941C218.157 140.928 218.174 140.885 218.175 140.841C218.179 140.738 218.111 140.604 218.039 140.558L218.025 140.557Z" fill="#686969"/>
<path d="M216.235 139.086C217.54 137.042 217.438 134.653 213.777 132.747C211.996 131.818 208.785 130.807 205.596 130.792C202.376 130.805 200.147 131.732 198.592 132.611C197.038 133.476 195.352 134.76 195.046 136.724C194.828 138.662 196.186 140.702 197.578 141.866C200.401 144.253 204.284 144.513 207.732 143.88C208.911 143.66 210.037 143.262 211.082 142.701C211.56 142.441 213.518 141.342 213.967 141.081C214.999 140.475 215.769 139.816 216.219 139.115L216.235 139.086Z" fill="#BC7F55"/>
<path d="M216.991 136.846C216.963 137.606 216.686 138.371 216.235 139.086C215.784 139.801 215.014 140.461 213.982 141.052C213.534 141.313 211.576 142.412 211.098 142.672C210.053 143.234 208.926 143.646 207.748 143.851C204.3 144.47 200.417 144.224 197.593 141.837C196.302 140.75 195.024 138.903 195.047 137.075C195.047 137.075 195.032 137.484 195.028 137.601C194.99 139.429 196.282 141.291 197.573 142.392C200.397 144.779 204.279 145.04 207.727 144.406C208.906 144.186 210.033 143.789 211.078 143.227C211.556 142.967 213.513 141.869 213.962 141.607C214.994 141.001 215.764 140.342 216.215 139.642C216.65 138.955 216.94 138.22 216.967 137.489C216.976 137.255 216.99 136.861 216.99 136.861L216.991 136.846Z" fill="#B77A49"/>
<path d="M199.043 142.608C199.684 142.69 234.973 125.408 234.973 125.408L246.169 147.961L225.932 157.077L199.043 142.608Z" fill="white"/>
<path d="M223.227 155.412L223.111 158.554L199.062 145.257L199.043 142.608L223.227 155.412Z" fill="#DCDAD9"/>
<path d="M219.631 58.5825L253.777 76.6417L218.393 92.1201L184.261 74.076L219.631 58.5825Z" fill="url(#paint84_linear_2317_150819)"/>
<path d="M241.746 86.6165L238.918 163.249L236.841 164.416L239.715 86.5415L241.746 86.6165Z" fill="url(#paint85_linear_2317_150819)"/>
<path d="M233.282 90.3575L230.453 166.99L228.376 168.157L231.25 90.2826L233.282 90.3575Z" fill="url(#paint86_linear_2317_150819)"/>
<path d="M184.261 74.076L181.078 160.309L182.772 161.206L192.805 166.508L215.196 178.353L218.378 92.1196L184.246 74.0755L184.261 74.076ZM188.718 159.479L186.12 158.11L188.95 81.4486L213.335 94.3479L210.506 171.01L202.569 166.81L188.718 159.479Z" fill="url(#paint87_linear_2317_150819)"/>
<path d="M218.393 92.12L215.211 178.353L250.58 162.86L253.763 76.6265L218.394 92.1054L218.393 92.12ZM223.201 94.6681L248.529 83.6475L245.699 160.309L220.369 171.403L223.201 94.6827L223.201 94.6681Z" fill="url(#paint88_linear_2317_150819)"/>
<path d="M248.19 93.2198L222.86 104.313L222.797 106.009L248.126 94.9295L248.19 93.2198Z" fill="url(#paint89_linear_2317_150819)"/>
<path d="M247.656 107.672L222.326 118.766L222.264 120.461L247.593 109.382L247.656 107.672Z" fill="url(#paint90_linear_2317_150819)"/>
<path d="M247.123 122.125L221.793 133.219L221.73 134.914L247.06 123.82L247.123 122.125Z" fill="url(#paint91_linear_2317_150819)"/>
<path d="M246.589 136.578L221.259 147.671L221.197 149.366L246.527 138.273L246.589 136.578Z" fill="url(#paint92_linear_2317_150819)"/>
<path d="M246.056 151.03L220.726 162.124L220.663 163.819L245.993 152.725L246.056 151.03Z" fill="url(#paint93_linear_2317_150819)"/>
<path opacity="0.5" d="M248.543 83.6482L223.216 94.6688L220.384 171.389L245.714 160.295L248.543 83.6482Z" fill="url(#paint94_linear_2317_150819)"/>
<path opacity="0.5" d="M188.906 81.4324L213.352 94.29L210.521 171.01L186.077 158.079L188.906 81.4324Z" fill="url(#paint95_linear_2317_150819)"/>
<path d="M246.891 60.5982L233.272 53.3497C228.306 50.708 222.066 50.4777 216.92 52.7315L186.221 66.1732L213.921 77.2779L213.744 77.3299L218.512 89.3002L253.881 73.8213L253.936 71.5259C254.039 67.1397 251.368 62.9878 246.905 60.6134L246.891 60.5982Z" fill="url(#paint96_linear_2317_150819)"/>
<path d="M184.408 69.2964L184.337 71.2254L218.469 89.2694L218.572 86.4783C218.724 82.372 216.248 78.4759 212.056 76.2726L192.307 65.8272C188.919 64.034 184.532 65.95 184.409 69.2818L184.408 69.2964Z" fill="url(#paint97_linear_2317_150819)"/>
<path d="M205.535 123.327L212.195 126.85L212.114 129.028L205.455 125.504L205.535 123.327Z" fill="url(#paint98_linear_2317_150819)"/>
<path d="M214.487 125.793L212.194 126.85L212.114 129.027L214.405 128.015L214.487 125.793Z" fill="url(#paint99_linear_2317_150819)"/>
<path d="M214.487 125.793L213.711 125.428L212.224 126.061L206.383 122.948L205.535 123.326L212.195 126.85L214.487 125.793Z" fill="url(#paint100_linear_2317_150819)"/>
<path d="M188.883 71.3492L188.83 72.7813L214.049 86.121L214.125 84.0605C214.237 81.021 212.397 78.1435 209.31 76.5223L194.728 68.8138C192.23 67.4925 188.988 68.9093 188.897 71.3643L188.883 71.3492Z" fill="url(#paint101_linear_2317_150819)"/>
<path fill-rule="evenodd" clip-rule="evenodd" d="M188 245.5V231.9L0 119.19V132.79L188 245.5Z" fill="#F6A61C"/>
<path fill-rule="evenodd" clip-rule="evenodd" d="M188 231.921L189.35 229.151L188 227.731L0 119V123.19L188 231.921Z" fill="#D7D3CC"/>
<path fill-rule="evenodd" clip-rule="evenodd" d="M188 232V227.5L367 124.5V129L188 232Z" fill="url(#paint102_linear_2317_150819)"/>
</g>
<defs>
<linearGradient id="paint0_linear_2317_150819" x1="182.304" y1="126.317" x2="112.803" y2="123.752" gradientUnits="userSpaceOnUse">
<stop stop-color="#FAD6C7"/>
<stop offset="1" stop-color="#E4857F"/>
</linearGradient>
<linearGradient id="paint1_linear_2317_150819" x1="130.185" y1="119.828" x2="133.776" y2="31.2686" gradientUnits="userSpaceOnUse">
<stop stop-color="#F6F6F6"/>
<stop offset="1" stop-color="#00A19A"/>
</linearGradient>
<linearGradient id="paint2_linear_2317_150819" x1="137.917" y1="72.1019" x2="135.886" y2="72.0269" gradientUnits="userSpaceOnUse">
<stop stop-color="#FAD6C7"/>
<stop offset="1" stop-color="#E4857F"/>
</linearGradient>
<linearGradient id="paint3_linear_2317_150819" x1="129.467" y1="75.8434" x2="127.436" y2="75.7685" gradientUnits="userSpaceOnUse">
<stop stop-color="#FAD6C7"/>
<stop offset="1" stop-color="#E4857F"/>
</linearGradient>
<linearGradient id="paint4_linear_2317_150819" x1="145.558" y1="45.4733" x2="120.672" y2="44.5548" gradientUnits="userSpaceOnUse">
<stop stop-color="#FAD6C7"/>
<stop offset="1" stop-color="#E4857F"/>
</linearGradient>
<linearGradient id="paint5_linear_2317_150819" x1="145.025" y1="59.9258" x2="120.138" y2="59.0073" gradientUnits="userSpaceOnUse">
<stop stop-color="#FAD6C7"/>
<stop offset="1" stop-color="#E4857F"/>
</linearGradient>
<linearGradient id="paint6_linear_2317_150819" x1="144.491" y1="74.3785" x2="119.605" y2="73.46" gradientUnits="userSpaceOnUse">
<stop stop-color="#FAD6C7"/>
<stop offset="1" stop-color="#E4857F"/>
</linearGradient>
<linearGradient id="paint7_linear_2317_150819" x1="143.958" y1="88.831" x2="119.071" y2="87.9125" gradientUnits="userSpaceOnUse">
<stop stop-color="#FAD6C7"/>
<stop offset="1" stop-color="#E4857F"/>
</linearGradient>
<linearGradient id="paint8_linear_2317_150819" x1="143.425" y1="103.269" x2="118.539" y2="102.351" gradientUnits="userSpaceOnUse">
<stop stop-color="#FAD6C7"/>
<stop offset="1" stop-color="#E4857F"/>
</linearGradient>
<linearGradient id="paint9_linear_2317_150819" x1="180.279" y1="46.7548" x2="155.378" y2="45.8357" gradientUnits="userSpaceOnUse">
<stop stop-color="#FAD6C7"/>
<stop offset="1" stop-color="#E4857F"/>
</linearGradient>
<linearGradient id="paint10_linear_2317_150819" x1="179.746" y1="61.2073" x2="154.845" y2="60.2882" gradientUnits="userSpaceOnUse">
<stop stop-color="#FAD6C7"/>
<stop offset="1" stop-color="#E4857F"/>
</linearGradient>
<linearGradient id="paint11_linear_2317_150819" x1="179.212" y1="75.66" x2="154.311" y2="74.7409" gradientUnits="userSpaceOnUse">
<stop stop-color="#FAD6C7"/>
<stop offset="1" stop-color="#E4857F"/>
</linearGradient>
<linearGradient id="paint12_linear_2317_150819" x1="178.679" y1="90.1125" x2="153.778" y2="89.1935" gradientUnits="userSpaceOnUse">
<stop stop-color="#FAD6C7"/>
<stop offset="1" stop-color="#E4857F"/>
</linearGradient>
<linearGradient id="paint13_linear_2317_150819" x1="178.146" y1="104.551" x2="153.245" y2="103.631" gradientUnits="userSpaceOnUse">
<stop stop-color="#FAD6C7"/>
<stop offset="1" stop-color="#E4857F"/>
</linearGradient>
<linearGradient id="paint14_linear_2317_150819" x1="149.454" y1="73.5373" x2="114.704" y2="72.2547" gradientUnits="userSpaceOnUse">
<stop stop-color="#FAD6C7"/>
<stop offset="1" stop-color="#E4857F"/>
</linearGradient>
<linearGradient id="paint15_linear_2317_150819" x1="643.18" y1="91.7597" x2="149.454" y2="73.5373" gradientUnits="userSpaceOnUse">
<stop stop-color="#FAD6C7"/>
<stop offset="1" stop-color="#E4857F"/>
</linearGradient>
<linearGradient id="paint16_linear_2317_150819" x1="185.487" y1="40.0839" x2="115.986" y2="37.5188" gradientUnits="userSpaceOnUse">
<stop stop-color="#FAD6C7"/>
<stop offset="1" stop-color="#E4857F"/>
</linearGradient>
<linearGradient id="paint17_linear_2317_150819" x1="172.033" y1="88.9892" x2="169.987" y2="88.9137" gradientUnits="userSpaceOnUse">
<stop stop-color="#FAD6C7"/>
<stop offset="1" stop-color="#E4857F"/>
</linearGradient>
<linearGradient id="paint18_linear_2317_150819" x1="163.569" y1="92.7303" x2="161.538" y2="92.6553" gradientUnits="userSpaceOnUse">
<stop stop-color="#FAD6C7"/>
<stop offset="1" stop-color="#E4857F"/>
</linearGradient>
<linearGradient id="paint19_linear_2317_150819" x1="132.566" y1="35.4968" x2="130.434" y2="140.456" gradientUnits="userSpaceOnUse">
<stop stop-color="#FAD6C7"/>
<stop offset="1" stop-color="#E4857F"/>
</linearGradient>
<linearGradient id="paint20_linear_2317_150819" x1="196.023" y1="102.313" x2="160.251" y2="88.6714" gradientUnits="userSpaceOnUse">
<stop stop-color="#FAD6C7"/>
<stop offset="1" stop-color="#E4857F"/>
</linearGradient>
<linearGradient id="paint21_linear_2317_150819" x1="179.661" y1="63.5162" x2="154.774" y2="62.5977" gradientUnits="userSpaceOnUse">
<stop stop-color="#FAD6C7"/>
<stop offset="1" stop-color="#E4857F"/>
</linearGradient>
<linearGradient id="paint22_linear_2317_150819" x1="179.127" y1="77.9687" x2="154.241" y2="77.0502" gradientUnits="userSpaceOnUse">
<stop stop-color="#FAD6C7"/>
<stop offset="1" stop-color="#E4857F"/>
</linearGradient>
<linearGradient id="paint23_linear_2317_150819" x1="178.594" y1="92.4214" x2="153.707" y2="91.5029" gradientUnits="userSpaceOnUse">
<stop stop-color="#FAD6C7"/>
<stop offset="1" stop-color="#E4857F"/>
</linearGradient>
<linearGradient id="paint24_linear_2317_150819" x1="178.06" y1="106.874" x2="153.174" y2="105.955" gradientUnits="userSpaceOnUse">
<stop stop-color="#FAD6C7"/>
<stop offset="1" stop-color="#E4857F"/>
</linearGradient>
<linearGradient id="paint25_linear_2317_150819" x1="177.527" y1="121.327" x2="152.64" y2="120.408" gradientUnits="userSpaceOnUse">
<stop stop-color="#FAD6C7"/>
<stop offset="1" stop-color="#E4857F"/>
</linearGradient>
<linearGradient id="paint26_linear_2317_150819" x1="164.31" y1="136.877" x2="167.915" y2="48.3179" gradientUnits="userSpaceOnUse">
<stop stop-color="#F6F6F6"/>
<stop offset="1" stop-color="#00A19A"/>
</linearGradient>
<linearGradient id="paint27_linear_2317_150819" x1="129.896" y1="135.592" x2="132.844" y2="47.0088" gradientUnits="userSpaceOnUse">
<stop stop-color="#F6F6F6"/>
<stop offset="1" stop-color="#00A19A"/>
</linearGradient>
<linearGradient id="paint28_linear_2317_150819" x1="145.498" y1="18.5604" x2="158.696" y2="44.3631" gradientUnits="userSpaceOnUse">
<stop stop-color="#FAD6C7"/>
<stop offset="1" stop-color="#E4857F"/>
</linearGradient>
<linearGradient id="paint29_linear_2317_150819" x1="137.034" y1="29.4279" x2="127.069" y2="63.1263" gradientUnits="userSpaceOnUse">
<stop stop-color="#FAD6C7"/>
<stop offset="1" stop-color="#E4857F"/>
</linearGradient>
<linearGradient id="paint30_linear_2317_150819" x1="143.939" y1="89.7377" x2="137.159" y2="89.4874" gradientUnits="userSpaceOnUse">
<stop stop-color="#FAD6C7"/>
<stop offset="1" stop-color="#E4857F"/>
</linearGradient>
<linearGradient id="paint31_linear_2317_150819" x1="144.755" y1="95.0063" x2="144.925" y2="92.3786" gradientUnits="userSpaceOnUse">
<stop stop-color="#FAD6C7"/>
<stop offset="1" stop-color="#E4857F"/>
</linearGradient>
<linearGradient id="paint32_linear_2317_150819" x1="141.719" y1="87.2557" x2="141.779" y2="89.5847" gradientUnits="userSpaceOnUse">
<stop stop-color="#FAD6C7"/>
<stop offset="1" stop-color="#E4857F"/>
</linearGradient>
<linearGradient id="paint33_linear_2317_150819" x1="136.048" y1="32.3474" x2="128.691" y2="57.2304" gradientUnits="userSpaceOnUse">
<stop stop-color="#F6F6F6"/>
<stop offset="1" stop-color="#DCCCCA"/>
</linearGradient>
<linearGradient id="paint34_linear_2317_150819" x1="216.456" y1="144.597" x2="146.941" y2="142.031" gradientUnits="userSpaceOnUse">
<stop stop-color="#FAD6C7"/>
<stop offset="1" stop-color="#E4857F"/>
</linearGradient>
<linearGradient id="paint35_linear_2317_150819" x1="164.323" y1="138.107" x2="167.914" y2="49.5474" gradientUnits="userSpaceOnUse">
<stop stop-color="#F6F6F6"/>
<stop offset="1" stop-color="#00A19A"/>
</linearGradient>
<linearGradient id="paint36_linear_2317_150819" x1="172.07" y1="90.3814" x2="170.024" y2="90.3058" gradientUnits="userSpaceOnUse">
<stop stop-color="#FAD6C7"/>
<stop offset="1" stop-color="#E4857F"/>
</linearGradient>
<linearGradient id="paint37_linear_2317_150819" x1="163.605" y1="94.1225" x2="161.574" y2="94.0475" gradientUnits="userSpaceOnUse">
<stop stop-color="#FAD6C7"/>
<stop offset="1" stop-color="#E4857F"/>
</linearGradient>
<linearGradient id="paint38_linear_2317_150819" x1="179.696" y1="63.7523" x2="154.81" y2="62.8338" gradientUnits="userSpaceOnUse">
<stop stop-color="#FAD6C7"/>
<stop offset="1" stop-color="#E4857F"/>
</linearGradient>
<linearGradient id="paint39_linear_2317_150819" x1="179.163" y1="78.2048" x2="154.277" y2="77.2863" gradientUnits="userSpaceOnUse">
<stop stop-color="#FAD6C7"/>
<stop offset="1" stop-color="#E4857F"/>
</linearGradient>
<linearGradient id="paint40_linear_2317_150819" x1="178.63" y1="92.6574" x2="153.743" y2="91.7389" gradientUnits="userSpaceOnUse">
<stop stop-color="#FAD6C7"/>
<stop offset="1" stop-color="#E4857F"/>
</linearGradient>
<linearGradient id="paint41_linear_2317_150819" x1="178.096" y1="107.11" x2="153.21" y2="106.192" gradientUnits="userSpaceOnUse">
<stop stop-color="#FAD6C7"/>
<stop offset="1" stop-color="#E4857F"/>
</linearGradient>
<linearGradient id="paint42_linear_2317_150819" x1="177.563" y1="121.563" x2="152.676" y2="120.644" gradientUnits="userSpaceOnUse">
<stop stop-color="#FAD6C7"/>
<stop offset="1" stop-color="#E4857F"/>
</linearGradient>
<linearGradient id="paint43_linear_2317_150819" x1="214.417" y1="65.0338" x2="189.531" y2="64.1153" gradientUnits="userSpaceOnUse">
<stop stop-color="#FAD6C7"/>
<stop offset="1" stop-color="#E4857F"/>
</linearGradient>
<linearGradient id="paint44_linear_2317_150819" x1="213.884" y1="79.4863" x2="188.997" y2="78.5678" gradientUnits="userSpaceOnUse">
<stop stop-color="#FAD6C7"/>
<stop offset="1" stop-color="#E4857F"/>
</linearGradient>
<linearGradient id="paint45_linear_2317_150819" x1="213.351" y1="93.9389" x2="188.464" y2="93.0204" gradientUnits="userSpaceOnUse">
<stop stop-color="#FAD6C7"/>
<stop offset="1" stop-color="#E4857F"/>
</linearGradient>
<linearGradient id="paint46_linear_2317_150819" x1="212.817" y1="108.392" x2="187.931" y2="107.473" gradientUnits="userSpaceOnUse">
<stop stop-color="#FAD6C7"/>
<stop offset="1" stop-color="#E4857F"/>
</linearGradient>
<linearGradient id="paint47_linear_2317_150819" x1="212.284" y1="122.844" x2="187.397" y2="121.926" gradientUnits="userSpaceOnUse">
<stop stop-color="#FAD6C7"/>
<stop offset="1" stop-color="#E4857F"/>
</linearGradient>
<linearGradient id="paint48_linear_2317_150819" x1="183.607" y1="91.8169" x2="148.841" y2="90.5337" gradientUnits="userSpaceOnUse">
<stop stop-color="#FAD6C7"/>
<stop offset="1" stop-color="#E4857F"/>
</linearGradient>
<linearGradient id="paint49_linear_2317_150819" x1="218.357" y1="93.0994" x2="183.606" y2="91.8169" gradientUnits="userSpaceOnUse">
<stop stop-color="#FAD6C7"/>
<stop offset="1" stop-color="#E4857F"/>
</linearGradient>
<linearGradient id="paint50_linear_2317_150819" x1="219.639" y1="58.3635" x2="150.124" y2="55.7978" gradientUnits="userSpaceOnUse">
<stop stop-color="#FAD6C7"/>
<stop offset="1" stop-color="#E4857F"/>
</linearGradient>
<linearGradient id="paint51_linear_2317_150819" x1="206.171" y1="107.268" x2="204.14" y2="107.193" gradientUnits="userSpaceOnUse">
<stop stop-color="#FAD6C7"/>
<stop offset="1" stop-color="#E4857F"/>
</linearGradient>
<linearGradient id="paint52_linear_2317_150819" x1="197.722" y1="111.01" x2="195.676" y2="110.934" gradientUnits="userSpaceOnUse">
<stop stop-color="#FAD6C7"/>
<stop offset="1" stop-color="#E4857F"/>
</linearGradient>
<linearGradient id="paint53_linear_2317_150819" x1="166.704" y1="53.7758" x2="164.572" y2="158.735" gradientUnits="userSpaceOnUse">
<stop stop-color="#FAD6C7"/>
<stop offset="1" stop-color="#E4857F"/>
</linearGradient>
<linearGradient id="paint54_linear_2317_150819" x1="230.161" y1="120.592" x2="194.389" y2="106.95" gradientUnits="userSpaceOnUse">
<stop stop-color="#FAD6C7"/>
<stop offset="1" stop-color="#E4857F"/>
</linearGradient>
<linearGradient id="paint55_linear_2317_150819" x1="213.799" y1="81.7952" x2="188.912" y2="80.8767" gradientUnits="userSpaceOnUse">
<stop stop-color="#FAD6C7"/>
<stop offset="1" stop-color="#E4857F"/>
</linearGradient>
<linearGradient id="paint56_linear_2317_150819" x1="213.265" y1="96.2478" x2="188.379" y2="95.3293" gradientUnits="userSpaceOnUse">
<stop stop-color="#FAD6C7"/>
<stop offset="1" stop-color="#E4857F"/>
</linearGradient>
<linearGradient id="paint57_linear_2317_150819" x1="212.732" y1="110.701" x2="187.845" y2="109.782" gradientUnits="userSpaceOnUse">
<stop stop-color="#FAD6C7"/>
<stop offset="1" stop-color="#E4857F"/>
</linearGradient>
<linearGradient id="paint58_linear_2317_150819" x1="212.198" y1="125.153" x2="187.312" y2="124.235" gradientUnits="userSpaceOnUse">
<stop stop-color="#FAD6C7"/>
<stop offset="1" stop-color="#E4857F"/>
</linearGradient>
<linearGradient id="paint59_linear_2317_150819" x1="211.665" y1="139.606" x2="186.779" y2="138.687" gradientUnits="userSpaceOnUse">
<stop stop-color="#FAD6C7"/>
<stop offset="1" stop-color="#E4857F"/>
</linearGradient>
<linearGradient id="paint60_linear_2317_150819" x1="198.463" y1="155.157" x2="202.053" y2="66.5969" gradientUnits="userSpaceOnUse">
<stop stop-color="#F6F6F6"/>
<stop offset="1" stop-color="#00A19A"/>
</linearGradient>
<linearGradient id="paint61_linear_2317_150819" x1="164.034" y1="153.871" x2="166.982" y2="65.2878" gradientUnits="userSpaceOnUse">
<stop stop-color="#F6F6F6"/>
<stop offset="1" stop-color="#00A19A"/>
</linearGradient>
<linearGradient id="paint62_linear_2317_150819" x1="179.636" y1="36.8395" x2="192.834" y2="62.6421" gradientUnits="userSpaceOnUse">
<stop stop-color="#FAD6C7"/>
<stop offset="1" stop-color="#E4857F"/>
</linearGradient>
<linearGradient id="paint63_linear_2317_150819" x1="171.172" y1="47.7069" x2="161.207" y2="81.4054" gradientUnits="userSpaceOnUse">
<stop stop-color="#FAD6C7"/>
<stop offset="1" stop-color="#E4857F"/>
</linearGradient>
<linearGradient id="paint64_linear_2317_150819" x1="178.077" y1="108.017" x2="171.296" y2="107.766" gradientUnits="userSpaceOnUse">
<stop stop-color="#FAD6C7"/>
<stop offset="1" stop-color="#E4857F"/>
</linearGradient>
<linearGradient id="paint65_linear_2317_150819" x1="178.892" y1="113.285" x2="179.062" y2="110.658" gradientUnits="userSpaceOnUse">
<stop stop-color="#FAD6C7"/>
<stop offset="1" stop-color="#E4857F"/>
</linearGradient>
<linearGradient id="paint66_linear_2317_150819" x1="175.857" y1="105.535" x2="175.917" y2="107.864" gradientUnits="userSpaceOnUse">
<stop stop-color="#FAD6C7"/>
<stop offset="1" stop-color="#E4857F"/>
</linearGradient>
<linearGradient id="paint67_linear_2317_150819" x1="170.186" y1="50.6264" x2="162.829" y2="75.5094" gradientUnits="userSpaceOnUse">
<stop stop-color="#F6F6F6"/>
<stop offset="1" stop-color="#DCCCCA"/>
</linearGradient>
<linearGradient id="paint68_linear_2317_150819" x1="250.594" y1="162.875" x2="181.093" y2="160.31" gradientUnits="userSpaceOnUse">
<stop stop-color="#FAD6C7"/>
<stop offset="1" stop-color="#E4857F"/>
</linearGradient>
<linearGradient id="paint69_linear_2317_150819" x1="198.461" y1="156.385" x2="202.052" y2="67.8258" gradientUnits="userSpaceOnUse">
<stop stop-color="#F6F6F6"/>
<stop offset="1" stop-color="#00A19A"/>
</linearGradient>
<linearGradient id="paint70_linear_2317_150819" x1="206.208" y1="108.66" x2="204.176" y2="108.585" gradientUnits="userSpaceOnUse">
<stop stop-color="#FAD6C7"/>
<stop offset="1" stop-color="#E4857F"/>
</linearGradient>
<linearGradient id="paint71_linear_2317_150819" x1="197.758" y1="112.401" x2="195.712" y2="112.326" gradientUnits="userSpaceOnUse">
<stop stop-color="#FAD6C7"/>
<stop offset="1" stop-color="#E4857F"/>
</linearGradient>
<linearGradient id="paint72_linear_2317_150819" x1="213.834" y1="82.0305" x2="188.947" y2="81.112" gradientUnits="userSpaceOnUse">
<stop stop-color="#FAD6C7"/>
<stop offset="1" stop-color="#E4857F"/>
</linearGradient>
<linearGradient id="paint73_linear_2317_150819" x1="213.301" y1="96.4831" x2="188.414" y2="95.5646" gradientUnits="userSpaceOnUse">
<stop stop-color="#FAD6C7"/>
<stop offset="1" stop-color="#E4857F"/>
</linearGradient>
<linearGradient id="paint74_linear_2317_150819" x1="212.767" y1="110.936" x2="187.881" y2="110.017" gradientUnits="userSpaceOnUse">
<stop stop-color="#FAD6C7"/>
<stop offset="1" stop-color="#E4857F"/>
</linearGradient>
<linearGradient id="paint75_linear_2317_150819" x1="212.234" y1="125.388" x2="187.347" y2="124.47" gradientUnits="userSpaceOnUse">
<stop stop-color="#FAD6C7"/>
<stop offset="1" stop-color="#E4857F"/>
</linearGradient>
<linearGradient id="paint76_linear_2317_150819" x1="211.7" y1="139.841" x2="186.814" y2="138.922" gradientUnits="userSpaceOnUse">
<stop stop-color="#FAD6C7"/>
<stop offset="1" stop-color="#E4857F"/>
</linearGradient>
<linearGradient id="paint77_linear_2317_150819" x1="248.555" y1="83.312" x2="223.669" y2="82.3935" gradientUnits="userSpaceOnUse">
<stop stop-color="#FAD6C7"/>
<stop offset="1" stop-color="#E4857F"/>
</linearGradient>
<linearGradient id="paint78_linear_2317_150819" x1="248.022" y1="97.7646" x2="223.135" y2="96.8461" gradientUnits="userSpaceOnUse">
<stop stop-color="#FAD6C7"/>
<stop offset="1" stop-color="#E4857F"/>
</linearGradient>
<linearGradient id="paint79_linear_2317_150819" x1="247.488" y1="112.217" x2="222.602" y2="111.299" gradientUnits="userSpaceOnUse">
<stop stop-color="#FAD6C7"/>
<stop offset="1" stop-color="#E4857F"/>
</linearGradient>
<linearGradient id="paint80_linear_2317_150819" x1="246.955" y1="126.67" x2="222.068" y2="125.751" gradientUnits="userSpaceOnUse">
<stop stop-color="#FAD6C7"/>
<stop offset="1" stop-color="#E4857F"/>
</linearGradient>
<linearGradient id="paint81_linear_2317_150819" x1="246.421" y1="141.122" x2="221.535" y2="140.204" gradientUnits="userSpaceOnUse">
<stop stop-color="#FAD6C7"/>
<stop offset="1" stop-color="#E4857F"/>
</linearGradient>
<linearGradient id="paint82_linear_2317_150819" x1="217.744" y1="110.095" x2="182.994" y2="108.812" gradientUnits="userSpaceOnUse">
<stop stop-color="#FAD6C7"/>
<stop offset="1" stop-color="#E4857F"/>
</linearGradient>
<linearGradient id="paint83_linear_2317_150819" x1="252.495" y1="111.378" x2="217.744" y2="110.095" gradientUnits="userSpaceOnUse">
<stop stop-color="#FAD6C7"/>
<stop offset="1" stop-color="#E4857F"/>
</linearGradient>
<linearGradient id="paint84_linear_2317_150819" x1="253.777" y1="76.6417" x2="184.276" y2="74.0766" gradientUnits="userSpaceOnUse">
<stop stop-color="#FAD6C7"/>
<stop offset="1" stop-color="#E4857F"/>
</linearGradient>
<linearGradient id="paint85_linear_2317_150819" x1="240.309" y1="125.546" x2="238.278" y2="125.471" gradientUnits="userSpaceOnUse">
<stop stop-color="#FAD6C7"/>
<stop offset="1" stop-color="#E4857F"/>
</linearGradient>
<linearGradient id="paint86_linear_2317_150819" x1="231.859" y1="129.288" x2="229.828" y2="129.213" gradientUnits="userSpaceOnUse">
<stop stop-color="#FAD6C7"/>
<stop offset="1" stop-color="#E4857F"/>
</linearGradient>
<linearGradient id="paint87_linear_2317_150819" x1="200.841" y1="72.0686" x2="198.709" y2="177.013" gradientUnits="userSpaceOnUse">
<stop stop-color="#FAD6C7"/>
<stop offset="1" stop-color="#E4857F"/>
</linearGradient>
<linearGradient id="paint88_linear_2317_150819" x1="264.299" y1="138.87" x2="228.541" y2="125.229" gradientUnits="userSpaceOnUse">
<stop stop-color="#FAD6C7"/>
<stop offset="1" stop-color="#E4857F"/>
</linearGradient>
<linearGradient id="paint89_linear_2317_150819" x1="247.937" y1="100.073" x2="223.05" y2="99.1549" gradientUnits="userSpaceOnUse">
<stop stop-color="#FAD6C7"/>
<stop offset="1" stop-color="#E4857F"/>
</linearGradient>
<linearGradient id="paint90_linear_2317_150819" x1="247.403" y1="114.526" x2="222.517" y2="113.608" gradientUnits="userSpaceOnUse">
<stop stop-color="#FAD6C7"/>
<stop offset="1" stop-color="#E4857F"/>
</linearGradient>
<linearGradient id="paint91_linear_2317_150819" x1="246.87" y1="128.979" x2="221.983" y2="128.06" gradientUnits="userSpaceOnUse">
<stop stop-color="#FAD6C7"/>
<stop offset="1" stop-color="#E4857F"/>
</linearGradient>
<linearGradient id="paint92_linear_2317_150819" x1="246.336" y1="143.431" x2="221.45" y2="142.513" gradientUnits="userSpaceOnUse">
<stop stop-color="#FAD6C7"/>
<stop offset="1" stop-color="#E4857F"/>
</linearGradient>
<linearGradient id="paint93_linear_2317_150819" x1="245.803" y1="157.884" x2="220.916" y2="156.965" gradientUnits="userSpaceOnUse">
<stop stop-color="#FAD6C7"/>
<stop offset="1" stop-color="#E4857F"/>
</linearGradient>
<linearGradient id="paint94_linear_2317_150819" x1="232.6" y1="173.435" x2="236.191" y2="84.8751" gradientUnits="userSpaceOnUse">
<stop stop-color="#F6F6F6"/>
<stop offset="1" stop-color="#00A19A"/>
</linearGradient>
<linearGradient id="paint95_linear_2317_150819" x1="198.187" y1="172.15" x2="201.119" y2="83.566" gradientUnits="userSpaceOnUse">
<stop stop-color="#F6F6F6"/>
<stop offset="1" stop-color="#00A19A"/>
</linearGradient>
<linearGradient id="paint96_linear_2317_150819" x1="213.788" y1="55.1182" x2="226.986" y2="80.9208" gradientUnits="userSpaceOnUse">
<stop stop-color="#FAD6C7"/>
<stop offset="1" stop-color="#E4857F"/>
</linearGradient>
<linearGradient id="paint97_linear_2317_150819" x1="205.324" y1="65.9857" x2="195.359" y2="99.6841" gradientUnits="userSpaceOnUse">
<stop stop-color="#FAD6C7"/>
<stop offset="1" stop-color="#E4857F"/>
</linearGradient>
<linearGradient id="paint98_linear_2317_150819" x1="212.215" y1="126.295" x2="205.435" y2="126.045" gradientUnits="userSpaceOnUse">
<stop stop-color="#FAD6C7"/>
<stop offset="1" stop-color="#E4857F"/>
</linearGradient>
<linearGradient id="paint99_linear_2317_150819" x1="213.045" y1="131.564" x2="213.215" y2="128.936" gradientUnits="userSpaceOnUse">
<stop stop-color="#FAD6C7"/>
<stop offset="1" stop-color="#E4857F"/>
</linearGradient>
<linearGradient id="paint100_linear_2317_150819" x1="209.995" y1="123.813" x2="210.07" y2="126.142" gradientUnits="userSpaceOnUse">
<stop stop-color="#FAD6C7"/>
<stop offset="1" stop-color="#E4857F"/>
</linearGradient>
<linearGradient id="paint101_linear_2317_150819" x1="204.324" y1="68.9046" x2="196.967" y2="93.7876" gradientUnits="userSpaceOnUse">
<stop stop-color="#F6F6F6"/>
<stop offset="1" stop-color="#DCCCCA"/>
</linearGradient>
<linearGradient id="paint102_linear_2317_150819" x1="246.92" y1="125.88" x2="268.18" y2="162.7" gradientUnits="userSpaceOnUse">
<stop stop-color="#AEA49D"/>
<stop offset="1" stop-color="#9B9692"/>
</linearGradient>
<clipPath id="clip0_2317_150819">
<rect width="367" height="264" fill="white"/>
</clipPath>
</defs>
</svg>
