<svg width="128" height="57" viewBox="0 0 128 57" fill="none" xmlns="http://www.w3.org/2000/svg">
<g clip-path="url(#clip0_2867_19222)">
<path d="M1.48739 35.7023L12.3954 30.0676C12.1736 29.7194 11.9696 29.389 11.7301 29.0054C11.8378 29.0204 11.9444 29.0419 12.0495 29.0697C14.012 29.7571 15.9723 30.449 17.937 31.1298C18.1588 31.2074 18.2852 31.3072 18.2962 31.5577C18.3225 31.7822 18.3648 32.0045 18.4226 32.223C16.5267 31.6775 14.7038 31.0765 12.8367 30.5288L12.9498 30.8282L2.12161 36.8643L1.86215 36.5472L1.45635 36.9907C1.31886 36.7468 1.23459 36.5472 1.44526 36.3365C1.65592 36.1258 1.73576 35.9662 1.48739 35.7023Z" fill="#00743D"/>
<path d="M43.7781 26.131L44.4433 27.1866C44.3416 27.1741 44.2409 27.1548 44.1418 27.1289C42.1682 26.4393 40.1946 25.743 38.2188 25.0577C38.1245 25.0403 38.0393 24.9908 37.9774 24.9177C37.9156 24.8445 37.881 24.7522 37.8795 24.6564C37.8662 24.4346 37.8107 24.2328 37.7642 23.9534L43.3301 25.6587L43.2437 25.3527L54.0608 19.3277L54.3113 19.6425L54.6839 19.219C54.9056 19.5627 54.9056 19.5627 54.5242 20.1393L54.6506 20.5118L43.7781 26.131Z" fill="#00743D"/>
<path d="M19.3195 2.12032L19.6432 1.87861L19.1997 1.47945C19.4636 1.29762 19.6898 1.2577 19.9049 1.50163C20.0734 1.6879 20.2597 1.69455 20.4947 1.50163L26.1339 12.4119L27.2427 11.7222C27.1761 11.9284 27.1429 12.0437 27.103 12.1657C26.4377 14.0772 25.7569 15.9865 25.1072 17.9002C25.0141 18.1641 24.8987 18.326 24.5972 18.3304C24.3965 18.3511 24.1978 18.3874 24.0029 18.4391C24.2379 17.4767 24.555 16.5764 24.83 15.665C25.105 14.7536 25.391 13.8244 25.6815 12.8687L25.38 12.9685C23.3546 9.34945 21.3344 5.73341 19.3195 2.12032Z" fill="#00743D"/>
<path d="M36.8549 54.076L36.54 54.2977L36.9835 54.6924C36.591 55.0406 36.3537 54.7102 36.0743 54.5128L35.6685 54.6392L30.0538 43.7955L28.9805 44.4608C29.0293 44.2789 29.0492 44.1747 29.0847 44.0772C29.761 42.139 30.444 40.2031 31.1137 38.2628C31.1342 38.1551 31.1914 38.0578 31.2754 37.9875C31.3595 37.9172 31.4654 37.8781 31.575 37.8769C31.7876 37.8543 31.9987 37.8188 32.207 37.7705C31.9697 38.7351 31.657 39.6221 31.3865 40.5225C31.1159 41.4228 30.8321 42.3386 30.5394 43.2899L30.8343 43.2567L36.8549 54.076Z" fill="#00743D"/>
<path d="M27.2355 38.2295H28.2755C26.945 40.9748 25.6478 43.6757 24.3283 46.4144L24.6255 46.4499C25.5325 49.6697 26.4394 52.9006 27.3619 56.1848L26.1578 56.1316L23.7806 46.665L22.6475 46.8867L27.2355 38.2295Z" fill="#00743D"/>
<path d="M9.75711 24.3285L9.73715 24.6412L0 27.3798C0.0221753 26.9563 0.0399155 26.5815 0.0620907 26.1713L9.51762 23.7985C9.44888 23.437 9.38678 23.0955 9.29587 22.6587L17.962 27.2445V28.2846L9.75711 24.3285Z" fill="#00743D"/>
<path d="M31.8554 9.77929L31.545 9.73494C30.638 6.51066 29.731 3.28416 28.8086 0L30.0171 0.0709608C30.8088 3.22206 31.596 6.35543 32.3899 9.52205L33.5319 9.31139L28.946 17.962H27.9038L31.8554 9.77929Z" fill="#00743D"/>
<path d="M38.2095 28.9496V27.9141C40.9725 29.2268 43.6735 30.5551 46.4143 31.8679L46.4409 31.5508L56.1626 28.8277C56.1626 29.0716 56.1626 29.249 56.1626 29.4264C56.1626 29.6038 56.1337 29.8078 56.1182 30.0296L46.6494 32.3979C46.7203 32.7571 46.7869 33.0986 46.8711 33.5377L38.2095 28.9496Z" fill="#00743D"/>
<path d="M25.5161 0.107826L26.7601 0.0368652C26.8222 0.19431 26.8799 0.329579 26.9265 0.48037C27.9613 3.57604 28.9962 6.67244 30.031 9.76959C30.0953 9.96251 30.1774 10.1488 30.2527 10.3661L26.9087 18.0099L25.8953 18.103C25.9641 17.9123 26.0151 17.7615 26.0749 17.613C26.8932 15.5218 27.7203 13.4352 28.5297 11.3396C28.5696 11.1861 28.647 11.0449 28.755 10.9288C28.863 10.8126 28.9982 10.7252 29.1484 10.6743C29.221 10.6441 29.2901 10.6061 29.3547 10.5612L25.5161 0.107826Z" fill="#00743D"/>
<path d="M10.3418 25.927L18.0056 29.271C18.0366 29.617 18.0632 29.9363 18.0943 30.2844C17.9257 30.2224 17.7971 30.178 17.6707 30.1292C15.5707 29.3043 13.4707 28.4749 11.3663 27.6633C11.2077 27.6231 11.0617 27.5437 10.9416 27.4326C10.8216 27.3214 10.7312 27.1819 10.6789 27.0269C10.6498 26.9601 10.6157 26.8956 10.5769 26.834C8.82724 27.4438 7.09757 28.1046 5.35903 28.7366C3.62049 29.3686 1.90191 30.0139 0.10571 30.6725L0.0258789 29.4263C0.167801 29.373 0.289764 29.322 0.416163 29.2799L9.81404 26.1354C9.97814 26.08 10.14 26.0068 10.3418 25.927Z" fill="#00743D"/>
<path d="M45.7967 30.2492C43.3774 29.1936 40.9048 28.1115 38.4323 27.036C38.3418 27.01 38.2633 26.9532 38.2102 26.8755C38.1572 26.7977 38.133 26.7039 38.1418 26.6102C38.1395 26.3803 38.124 26.1508 38.0952 25.9228C38.2083 25.9538 38.2992 25.9693 38.3813 26.0004C40.5855 26.8652 42.7853 27.7367 44.9917 28.5927C45.0954 28.6264 45.1895 28.6842 45.2666 28.7613C45.3437 28.8383 45.4015 28.9325 45.4352 29.0362C45.4847 29.151 45.541 29.2628 45.6038 29.371L56.066 25.5325C56.1037 25.976 56.137 26.3552 56.1747 26.7854L45.7967 30.2492Z" fill="#00743D"/>
<path d="M25.916 45.8545L29.2711 38.1708L30.2468 38.1042C30.2275 38.2008 30.2031 38.2963 30.1737 38.3903C29.3088 40.5967 28.4396 42.801 27.5814 45.0074C27.5512 45.1051 27.4989 45.1946 27.4285 45.2688C27.3581 45.3431 27.2716 45.4001 27.1756 45.4354C27.0501 45.4896 26.928 45.5511 26.8097 45.6194C28.087 49.0987 29.3598 52.5692 30.6438 56.0729L29.402 56.1704C29.3465 56.0196 29.2933 55.8822 29.2467 55.7424C28.2119 52.6379 27.1719 49.5289 26.1267 46.4155C26.0757 46.2359 25.9958 46.0607 25.916 45.8545Z" fill="#00743D"/>
<path d="M52.3334 16.5733L52.0695 16.1609L52.8279 14.7727L53.1295 15.3182L52.4132 16.5889L53.1317 17.64C53.0253 17.7198 52.9344 17.7952 52.8346 17.8617C49.424 19.9713 46.0142 22.0817 42.6051 24.1928C42.5159 24.2545 42.4137 24.2948 42.3064 24.3105C42.1991 24.3263 42.0896 24.3171 41.9864 24.2837C40.6204 23.9045 39.25 23.5341 37.8774 23.1749C37.765 23.1599 37.6608 23.1083 37.5806 23.0282C37.5005 22.948 37.4489 22.8437 37.4339 22.7314C37.4028 22.5562 37.3407 22.3877 37.272 22.1482C37.4494 22.1748 37.578 22.1859 37.7044 22.2125C38.6446 22.4343 39.5826 22.6405 40.5251 22.8445C40.8114 22.8886 41.0745 23.0276 41.2724 23.2392C41.3899 23.3745 41.5318 23.4854 41.6982 23.6406L52.3334 16.5733Z" fill="#00743D"/>
<path d="M34.0754 37.2693L33.5454 39.6376C33.5277 39.7174 33.5077 39.7973 33.4922 39.8793C33.3569 40.5446 33.2549 41.252 32.5142 41.6533L39.6103 52.3418L40.0228 52.0846C40.229 52.1932 40.4663 52.3063 40.688 52.4349C40.9098 52.5636 41.1316 52.6855 41.4087 52.8341C41.2624 52.9184 41.1537 52.976 41.0539 53.0559C40.9972 53.0943 40.9296 53.1138 40.8611 53.1114C40.7925 53.109 40.7265 53.0849 40.6725 53.0425C40.3199 52.8208 39.9585 52.6323 39.6015 52.4261L38.537 53.1534C38.455 53.0359 38.3818 52.9317 38.3153 52.8408C36.2131 49.4405 34.1101 46.0403 32.0064 42.6401C31.942 42.5454 31.9003 42.4371 31.8845 42.3237C31.8688 42.2102 31.8794 42.0947 31.9155 41.986C32.2925 40.6333 32.6562 39.2769 33.0065 37.9168C33.0775 37.6463 33.1928 37.4733 33.4833 37.44C33.6841 37.3959 33.8819 37.3388 34.0754 37.2693Z" fill="#00743D"/>
<path d="M18.6435 33.1299C18.7322 33.4315 18.8187 33.7197 18.9229 34.0701C18.7411 34.0368 18.5991 34.0169 18.4594 33.9836C17.4926 33.7619 16.5257 33.5401 15.5567 33.3317C15.3406 33.2963 15.1407 33.1948 14.9846 33.0412C14.836 32.8837 14.6675 32.7418 14.4901 32.5733L3.84594 39.6361L4.10539 40.0441L3.34921 41.4345L3.04541 40.889C3.28269 40.4699 3.5244 40.0397 3.76611 39.6073L3.04985 38.5584C3.17181 38.4719 3.2716 38.3987 3.36917 38.3366C6.76937 36.2344 10.1696 34.1315 13.5698 32.0278C13.6654 31.9608 13.7756 31.9174 13.8912 31.9012C14.0069 31.885 14.1247 31.8965 14.235 31.9346C15.601 32.3138 16.9737 32.6731 18.3441 33.0434C18.4328 33.0567 18.5348 33.0944 18.6435 33.1299Z" fill="#00743D"/>
<path d="M22.1087 18.9253C22.2329 18.3665 22.3304 17.883 22.4458 17.4018C22.5744 16.8231 22.7163 16.2487 22.8316 15.6677C22.8774 15.3667 23.0273 15.0913 23.2551 14.8894C23.386 14.7657 23.5096 14.6347 23.6255 14.4969L16.5649 3.85275L16.1591 4.12551L14.7554 3.36268L15.3208 3.06775L16.5826 3.78179L17.647 3.05444C17.7335 3.18749 17.8111 3.29615 17.8821 3.40925C19.9784 6.79615 22.0747 10.1823 24.171 13.5677C24.2361 13.6621 24.2786 13.7702 24.2952 13.8837C24.3117 13.9971 24.3019 14.1129 24.2663 14.2219C23.8894 15.5879 23.5198 16.9576 23.1576 18.331C23.0999 18.5527 23.0201 18.7013 22.7717 18.7412C22.5474 18.79 22.3261 18.8515 22.1087 18.9253Z" fill="#00743D"/>
<path d="M18.6276 23.1349C18.5522 23.4498 18.4812 23.7514 18.4058 24.1151C18.2506 24.0175 18.1264 23.9443 18.0066 23.8623C15.1313 21.8975 12.264 19.9306 9.40486 17.9614C9.17184 17.7951 8.88748 17.7165 8.60212 17.7397C7.06094 17.8239 5.51976 17.8794 3.97858 17.9481C3.46855 17.9703 2.95852 17.9969 2.4507 18.0169C2.2733 18.0169 2.09368 18.0169 1.86084 18.0169L2.23782 17.0744L9.05006 16.9524L9.20528 16.1719L18.6276 23.1349Z" fill="#00743D"/>
<path d="M47.1162 39.2501C47.0696 39.514 47.0297 39.7402 46.9765 40.0373L37.5542 33.0632C37.6274 32.7528 37.7006 32.4401 37.787 32.0764C37.9511 32.1829 38.0753 32.2583 38.1951 32.3425C41.0586 34.3058 43.92 36.2705 46.7791 38.2367C47.0113 38.4031 47.295 38.4816 47.5796 38.4585C49.7129 38.3542 51.8462 38.2611 53.9794 38.1657C54.0725 38.1657 54.1679 38.1657 54.3298 38.1657L53.9461 39.1237L47.1162 39.2501Z" fill="#00743D"/>
<path d="M18.1844 25.2105C18.1445 25.5232 18.1068 25.8336 18.0646 26.1818C17.9564 26.142 17.8506 26.0961 17.7475 26.0443C14.949 24.4181 12.149 22.7963 9.34756 21.179C9.24112 21.1324 9.15188 21.0537 9.09226 20.9539C9.03264 20.8541 9.00561 20.7383 9.01493 20.6224C9.01493 20.4472 8.99497 20.2721 8.98166 20.0503L0.887695 21.0282C0.991919 20.649 1.08284 20.3275 1.17819 19.9838C1.52191 19.9461 1.84345 19.9084 2.17386 19.8773L7.85073 19.3496C8.16561 19.3207 8.50046 19.2165 8.79317 19.2875C9.08589 19.3584 9.31429 19.609 9.57596 19.7753L17.8252 24.9732C17.9449 25.0575 18.0558 25.124 18.1844 25.2105Z" fill="#00743D"/>
<path d="M18.0262 54.3412L17.0549 53.9509C17.0127 51.658 16.9706 49.4006 16.9307 47.1298L16.1523 46.9924L23.1287 37.5679L24.111 37.8029C24.0113 37.9582 23.9381 38.0823 23.856 38.1999C21.9002 41.0516 19.9414 43.9026 17.9796 46.7529C17.7859 47.0204 17.6946 47.3485 17.7224 47.6776C17.8133 49.3695 17.8776 51.0637 17.9441 52.7579C17.9729 53.2458 17.9973 53.7403 18.0262 54.3412Z" fill="#00743D"/>
<path d="M21.0128 55.2978L19.9573 54.994C19.7134 52.4239 19.4717 49.8626 19.2344 47.3546C19.3874 47.1462 19.516 46.9887 19.6224 46.818C21.3965 44.0002 23.1749 41.1803 24.9578 38.3581C25.0288 38.2428 25.1064 38.1363 25.1973 37.99L26.1974 38.123C26.1043 38.2916 26.04 38.4113 25.9757 38.5288C24.3946 41.2586 22.8068 43.984 21.2368 46.7204C21.0572 47.0331 20.8643 47.2016 20.4984 47.1639C20.3451 47.1648 20.1922 47.1797 20.0416 47.2082C20.3631 49.9048 20.6846 52.5547 21.0128 55.2978Z" fill="#00743D"/>
<path d="M32.0601 18.3915C32.1975 18.1875 32.2951 18.0389 32.3949 17.8926C34.3375 15.063 36.2807 12.2342 38.2248 9.4061C38.3906 9.17283 38.4691 8.88867 38.4465 8.60336C38.3423 6.48119 38.2492 4.36123 38.1538 2.24128C38.1538 2.13484 38.1538 2.01953 38.1538 1.85986L39.1096 2.24571C39.1517 4.52755 39.1916 6.78499 39.2338 9.05795L39.9411 9.18435C39.8458 9.47485 33.6412 17.9258 33.0158 18.6177L32.0601 18.3915Z" fill="#00743D"/>
<path d="M37.981 30.9899C38.0253 30.6506 38.0652 30.3535 38.1096 30.012C38.2404 30.0696 38.3313 30.1029 38.4267 30.1539C41.2267 31.7801 44.0289 33.4018 46.8333 35.0191C46.9389 35.0668 47.0269 35.1463 47.085 35.2465C47.143 35.3468 47.1683 35.4627 47.1571 35.578C47.1571 35.7531 47.177 35.9283 47.1926 36.1412L55.2887 35.1655L54.996 36.2166L47.401 36.9329L37.981 30.9899Z" fill="#00743D"/>
<path d="M35.1595 0.886719L36.2128 1.18387C36.4545 3.7562 36.6962 6.31744 36.9335 8.83433C36.7938 9.02504 36.6718 9.1714 36.572 9.33106C34.798 12.1399 33.024 14.9488 31.25 17.7577C31.1635 17.8974 31.0726 18.0348 30.975 18.1879L29.9971 18.0659C30.0547 17.9351 30.088 17.8441 30.139 17.7466C31.7652 14.9466 33.3914 12.1444 35.0175 9.33993C35.0661 9.23474 35.1456 9.14692 35.2455 9.08825C35.3454 9.02959 35.4609 9.00289 35.5764 9.01173C35.7515 9.01173 35.9267 8.99399 36.1374 8.98291C35.8092 6.28418 35.481 3.62315 35.1595 0.886719Z" fill="#00743D"/>
<path d="M48.0909 8.35962C48.2656 8.52101 48.4273 8.696 48.5743 8.88296C48.6162 8.9937 48.6162 9.11593 48.5743 9.22667C48.3171 10.1137 48.051 11.0007 47.7871 11.8877C47.7649 11.9653 47.7472 12.0451 47.7184 12.1582L48.8116 12.9676L38.9769 21.3543L39.4559 21.7313C39.3887 21.7375 39.3212 21.7375 39.2541 21.7313C38.5644 21.6005 37.8748 21.4608 37.1851 21.3388C37.1105 21.3332 37.0395 21.3043 36.9822 21.2561C36.9249 21.208 36.8842 21.143 36.8658 21.0705C36.7948 20.8642 36.7039 20.6669 36.5908 20.3897C37.1563 20.4474 37.6619 20.4385 38.1187 20.811L47.6097 12.1383C47.4478 12.0119 47.3103 11.9165 47.144 11.7813C47.4545 10.6814 47.7605 9.5593 48.0909 8.35962Z" fill="#00743D"/>
<path d="M8.55491 44.0551L9.02946 44.3855C8.72122 45.4943 8.41077 46.6363 8.08257 47.8382L7.51932 47.2484L8.47064 44.0485L7.38184 43.2413L17.1899 34.859L16.6755 34.4155C17.5226 34.573 18.2788 34.7127 19.0349 34.859C19.075 34.8642 19.1137 34.8772 19.1487 34.8974C19.1837 34.9176 19.2144 34.9445 19.2389 34.9766C19.3587 35.2294 19.4607 35.4955 19.5849 35.8104C19.015 35.7283 18.4983 35.7438 18.0481 35.389L8.55491 44.0551Z" fill="#00743D"/>
<path d="M44.0197 47.716L43.2214 48.8115L34.8436 39.0056L34.4312 39.4713C34.4467 39.3227 34.4489 39.2495 34.4644 39.1608C34.5819 38.5244 34.7106 37.888 34.817 37.2515C34.82 37.1623 34.8519 37.0764 34.9079 37.0068C34.9639 36.9373 35.0409 36.8877 35.1275 36.8657C35.3337 36.8036 35.5288 36.7082 35.7927 36.6018C35.7107 37.1651 35.7461 37.6817 35.3625 38.1297L44.0353 47.6207L44.3945 47.1484L47.7651 48.0753C47.7518 48.1241 47.7518 48.1573 47.7341 48.1751C47.2906 48.6696 47.2906 48.6696 46.6586 48.4811L44.3213 47.787C44.2282 47.7604 44.1284 47.7427 44.0197 47.716Z" fill="#00743D"/>
<path d="M12.1457 8.48596L12.9507 7.3772L21.3418 17.2031C21.4749 17.0412 21.5835 16.9103 21.69 16.7773L21.7521 16.8039C21.7122 17.039 21.6767 17.274 21.6323 17.5091C21.537 18.0102 21.4327 18.5092 21.3463 19.0103C21.3413 19.0782 21.3153 19.1427 21.272 19.1952C21.2287 19.2476 21.1702 19.2853 21.1046 19.3031C20.8828 19.3784 20.661 19.4716 20.3994 19.5802C20.4548 19.0214 20.4659 18.5158 20.8074 18.0524L12.1435 8.57466L11.7887 9.04256L8.35156 8.09568L8.94142 7.53908L12.1457 8.48596Z" fill="#00743D"/>
<path d="M36.8784 35.0946L37.2288 34.1411L46.6533 41.7206C46.5424 42.1375 46.4315 42.5566 46.3073 43.009L51.5296 43.6055C51.3566 43.8561 51.2214 44.049 51.0861 44.2552C50.973 44.4171 50.8089 44.3462 50.6692 44.3284C50.0816 44.2552 49.4939 44.1688 48.9085 44.0889C48.0769 43.9736 47.2431 43.8672 46.4116 43.7452C46.3007 43.7239 46.1912 43.6965 46.0834 43.6632L46.2275 43.1664L36.8784 35.0946Z" fill="#00743D"/>
<path d="M19.2929 21.0997L18.9447 22.0532C15.7826 19.5141 12.6558 16.995 9.52248 14.4737L9.86619 13.1853L4.65723 12.5888L5.18278 11.8215L10.1013 12.4868L9.97929 13.0412L19.2929 21.0997Z" fill="#00743D"/>
<path d="M43.6856 10.1164L43.1468 9.97886L35.0905 19.2925L34.1348 18.9443L41.7121 9.53536L43.0049 9.87242C43.2022 8.14275 43.3952 6.45078 43.5925 4.72998C43.9074 4.80759 44.0937 5.03378 44.3686 5.18457C44.1425 6.81889 43.9185 8.44877 43.6856 10.1164Z" fill="#00743D"/>
<path d="M14.4623 46.6695L13.1694 46.3169C12.9699 48.0554 12.7769 49.7563 12.5729 51.5303L11.8057 51.0025C12.0274 49.366 12.2492 47.7339 12.4842 46.073L13.0275 46.2193L21.0927 36.8857L22.044 37.2539C19.5138 40.4027 16.9947 43.525 14.4623 46.6695Z" fill="#00743D"/>
<path d="M19.1075 35.9788L20.0078 36.4334L11.4126 45.594L11.0246 45.5008C10.7518 46.9089 10.4835 48.2949 10.1974 49.7585C9.97569 49.5766 9.80272 49.4369 9.63197 49.2884C9.46122 49.1398 9.57653 49.0001 9.60536 48.8626C9.74507 48.1973 9.89808 47.5165 10.0489 46.8446C10.1686 46.2947 10.2861 45.7359 10.4059 45.1837L10.091 44.962L19.1075 35.9788Z" fill="#00743D"/>
<path d="M10.5952 11.4208L10.6772 11.0416L6.43066 10.2145C6.57589 10.015 6.7376 9.8281 6.91408 9.65568C7.03159 9.59459 7.16789 9.58033 7.2955 9.61576C8.34661 9.83751 9.3955 10.0593 10.4444 10.301L10.9943 10.4163L11.1717 10.179L20.2104 19.0979C20.1283 19.2664 20.0596 19.415 19.9886 19.5591L19.7513 20.0027L10.5952 11.4208Z" fill="#00743D"/>
<path d="M35.9614 37.074L36.4182 36.187L45.5766 44.7821C45.55 44.9041 45.5234 45.0194 45.4924 45.1591L49.7478 45.9863L49.2045 46.6515L45.1819 45.7822L44.938 46.1038C41.9465 43.088 38.964 40.0921 35.9614 37.074Z" fill="#00743D"/>
<path d="M37.0696 20.2153L36.1826 19.7718L44.7777 10.6134L45.1592 10.6933C45.4319 9.28956 45.7025 7.90139 45.9841 6.45557C46.1371 6.5731 46.2413 6.65293 46.3433 6.73497C46.4453 6.81702 46.5274 6.89907 46.6471 7.00551C46.3611 8.33603 46.075 9.66654 45.7845 10.9971L46.0994 11.2476L37.0696 20.2153Z" fill="#00743D"/>
<path d="M22.1157 16.2172C19.437 12.7933 16.7937 9.416 14.146 6.01654L14.5229 5.57303L12.5737 4.6705L13.1237 4.31348C13.8266 4.53523 14.3988 5.03195 15.2015 5.12953L22.7411 15.4588L22.1157 16.2172Z" fill="#00743D"/>
<path d="M15.4534 33.4441C15.7151 33.6658 15.9413 33.8543 16.2051 34.0761L6.00453 42.0437L5.54329 41.6578L4.65628 43.6048L4.2793 43.0415C4.52988 42.516 4.77824 42.0104 5.00886 41.4893C5.06399 41.3217 5.10407 41.1495 5.12861 40.9748L15.4534 33.4441Z" fill="#00743D"/>
<path d="M33.4312 40.7344C33.6352 40.4905 33.8281 40.2576 34.0609 39.9827L42.0285 50.1833L41.6493 50.6268L43.532 51.485C43.226 51.8841 43.0885 51.9285 42.6893 51.7333C42.2902 51.5382 41.8711 51.3364 41.4564 51.1523C41.2941 51.1035 41.1279 51.0686 40.9597 51.0481C38.4915 47.6775 35.9658 44.2093 33.4312 40.7344Z" fill="#00743D"/>
<path d="M50.1698 14.1496L50.6266 14.5243L51.4781 12.6638C51.8751 12.9587 51.9216 13.1073 51.7243 13.5065C51.5269 13.9056 51.3517 14.276 51.181 14.6662C51.1201 14.8481 51.0727 15.0341 51.039 15.2228L40.7298 22.7469L39.978 22.1149L50.1698 14.1496Z" fill="#00743D"/>
<path d="M22.3506 0.836123C22.5926 0.740117 22.8427 0.665906 23.0979 0.61437C23.3418 0.58776 23.4394 0.232956 23.7632 0.377095L23.5991 0.554497L28.094 11.1986L27.3578 11.6421C27.1471 11.4093 22.6721 1.74309 22.3506 0.836123Z" fill="#00743D"/>
<path d="M11.2191 28.0984C11.3721 28.3734 11.5074 28.6106 11.6626 28.8967L0.83665 33.8662C0.75682 33.5912 0.701381 33.3517 0.614898 33.1233C0.528414 32.8949 0.413103 32.7086 0.331055 32.458C0.535067 32.6532 0.701381 32.5312 0.876566 32.458L10.7956 28.2736L11.2191 28.0984Z" fill="#00743D"/>
<path d="M44.9644 28.0924L44.5098 27.2985L55.3224 22.3379C55.369 22.4621 55.4089 22.5596 55.451 22.6794C55.5597 22.9521 55.5442 23.2759 55.8036 23.4888C55.8502 23.5265 55.8302 23.6418 55.8568 23.8325C55.6351 23.5243 55.4599 23.6728 55.2892 23.746L46.1596 27.6001C45.7693 27.7642 45.3768 27.9238 44.9644 28.0924Z" fill="#00743D"/>
<path d="M33.8327 55.3538C33.5961 55.4493 33.3501 55.5199 33.0987 55.5645C32.8459 55.5844 32.7506 55.9525 32.4335 55.8106C32.622 55.662 32.5244 55.5068 32.4579 55.3472C31.4112 52.8724 30.366 50.3976 29.3223 47.9229C28.9631 47.0714 28.6046 46.2206 28.2468 45.3705C28.1936 45.2463 28.147 45.1199 28.0894 44.9691L28.8189 44.5522C29.0495 44.8139 33.0965 53.5221 33.8327 55.3538Z" fill="#00743D"/>
<path d="M0.279297 24.1447L0.443394 23.0182L9.11392 21.5325L9.24032 22.3552C6.26883 22.9606 3.30844 23.5438 0.279297 24.1447Z" fill="#00743D"/>
<path d="M24.1333 55.9142L23.0023 55.7368C22.5101 52.854 22.0178 49.9934 21.5166 47.0751L22.3437 46.9487C22.938 49.9313 23.5279 52.8828 24.1333 55.9142Z" fill="#00743D"/>
<path d="M47.0737 34.6613C47.0272 34.3819 46.9873 34.1402 46.9385 33.8431C49.91 33.2288 52.8748 32.6523 55.9062 32.0469C55.8418 32.4549 55.7908 32.7986 55.7332 33.1756L47.0737 34.6613Z" fill="#00743D"/>
<path d="M34.6549 9.11779L33.8367 9.25084C33.2291 6.28601 32.6481 3.32561 32.0449 0.287598L33.1692 0.449477C33.6659 3.34335 34.1494 6.20839 34.6549 9.11779Z" fill="#00743D"/>
<path d="M53.0497 41.0243C52.8878 41.3281 52.7459 41.592 52.6062 41.8692L46.7275 41.5188L46.8539 40.8536C47.16 40.7604 52.1117 40.8846 53.0497 41.0243Z" fill="#00743D"/>
<path d="M40.9778 3.12451L41.8515 3.59241C41.7361 5.5394 41.6297 7.47308 41.5011 9.45777L40.7671 9.32471C40.8358 7.2735 40.9068 5.24225 40.9778 3.12451Z" fill="#00743D"/>
<path d="M15.4055 46.868C15.3368 48.9259 15.268 50.9571 15.1838 53.0616L14.3101 52.607C14.4276 50.6533 14.5318 48.7196 14.6604 46.7239L15.4055 46.868Z" fill="#00743D"/>
<path d="M9.46059 14.6858C9.40737 14.9541 9.36967 15.1537 9.32089 15.4043C7.27189 15.3777 5.23177 15.269 3.11182 15.2091L3.57306 14.3376L9.46059 14.6858Z" fill="#00743D"/>
<path d="M10.4214 6.25206L11.0179 5.78638L13.486 6.73548L13.1046 7.21668L10.4214 6.25206Z" fill="#00743D"/>
<path d="M5.76611 45.1796C6.08765 44.3436 6.39367 43.5519 6.71965 42.707L7.19863 43.0907C6.88375 43.9777 6.57329 44.8292 6.23845 45.7517L5.76611 45.1796Z" fill="#00743D"/>
<path d="M42.6943 49.4514L43.0868 48.9746L45.7479 49.9348C45.5985 50.0686 45.4415 50.1937 45.2778 50.3096C45.2383 50.3316 45.1948 50.3454 45.1498 50.3504C45.1049 50.3553 45.0594 50.3513 45.0161 50.3384C44.2621 50.0634 43.5082 49.7685 42.6943 49.4514Z" fill="#00743D"/>
<path d="M49.4504 13.4895L48.9736 13.1037C49.2841 12.2366 49.5945 11.3762 49.9294 10.4426C50.089 10.6356 50.2243 10.7797 50.3352 10.9416C50.364 11.0127 50.364 11.0922 50.3352 11.1633C50.058 11.9239 49.7653 12.6779 49.4504 13.4895Z" fill="#00743D"/>
<path d="M2.61877 37.8628L2.88266 38.2952L2.28171 39.2199C2.18857 39.0137 2.11983 38.8651 2.04443 38.7032L2.61877 37.8628Z" fill="#00743D"/>
<path d="M16.9712 2.29744L17.4879 2.07568L18.3106 2.6345L17.9026 2.91613L16.9712 2.29744Z" fill="#00743D"/>
<path d="M38.2854 53.2881L39.2123 53.8935L38.7045 54.1263L37.8574 53.5653L38.2854 53.2881Z" fill="#00743D"/>
<path d="M53.5555 18.3279L53.2827 17.9043L53.8859 16.9663C53.9812 17.1881 54.0455 17.3322 54.1076 17.4919L53.5555 18.3279Z" fill="#00743D"/>
<path d="M0.833562 34.8543C0.727121 34.6326 0.642855 34.4463 0.904523 34.2866C1.12628 34.6037 1.12628 34.6037 0.833562 34.8543Z" fill="#00743D"/>
<path d="M34.2764 55.2383C34.6112 55.0764 34.6112 55.0764 34.8374 55.3248C34.4937 55.4911 34.4937 55.4911 34.2764 55.2383Z" fill="#00743D"/>
<path d="M21.9066 0.947732C21.5872 1.10961 21.5872 1.10961 21.3389 0.887859C21.6759 0.690499 21.6759 0.690499 21.9066 0.947732Z" fill="#00743D"/>
<path d="M55.3445 21.3315C55.4443 21.5821 55.513 21.775 55.2447 21.9125C55.0673 21.5821 55.0673 21.5821 55.3445 21.3315Z" fill="#00743D"/>
<path d="M63.541 40.2439H65.3283C65.7321 40.2181 66.1299 40.351 66.4371 40.6142C66.6107 40.7919 66.7072 41.031 66.7054 41.2795V41.2905C66.7096 41.5019 66.6478 41.7092 66.5285 41.8837C66.4093 42.0582 66.2386 42.1912 66.0402 42.264C66.5391 42.4126 66.9405 42.7075 66.9405 43.2775V43.2885C66.9405 44.0092 66.3351 44.435 65.4148 44.435H63.5499L63.541 40.2439ZM66.2176 41.3526C66.2176 40.9402 65.8872 40.6696 65.2862 40.6696H64.0089V42.1155H65.2507C65.8206 42.1155 66.2176 41.8582 66.2176 41.3659V41.3526ZM65.3306 42.5368H64V44.0181H65.417C66.0535 44.0181 66.4482 43.7365 66.4482 43.2686V43.2575C66.4504 42.7985 66.0668 42.5368 65.335 42.5368H65.3306Z" fill="#00743D"/>
<path d="M69.0101 42.7835L67.2627 40.2444H67.8393L69.2562 42.3444L70.6843 40.2444H71.2365L69.4891 42.7768V44.4444H69.0101V42.7835Z" fill="#00743D"/>
<path d="M74.9035 40.6806H73.4932V40.2371H76.7951V40.6806H75.3825V44.4504H74.9035V40.6806Z" fill="#00743D"/>
<path d="M77.7246 40.2444H78.1992V44.4444H77.7246V40.2444Z" fill="#00743D"/>
<path d="M79.1533 43.8323L79.4482 43.4842C79.6363 43.6749 79.8609 43.8258 80.1085 43.9279C80.3561 44.03 80.6218 44.0812 80.8896 44.0785C81.4529 44.0785 81.8254 43.7791 81.8254 43.3644V43.3534C81.8254 42.9631 81.6148 42.7413 80.7322 42.555C79.7676 42.3333 79.3219 42.0317 79.3219 41.3421V41.331C79.3219 40.6657 79.9051 40.1845 80.7034 40.1845C81.2421 40.1689 81.7678 40.352 82.1802 40.699L81.9031 41.0649C81.5667 40.7721 81.136 40.6106 80.6901 40.6103C80.1446 40.6103 79.8031 40.9096 79.8031 41.2888V41.2999C79.8031 41.6969 80.0248 41.9186 80.9429 42.116C81.8609 42.3133 82.3133 42.6637 82.3133 43.3046V43.3179C82.3133 44.0364 81.7123 44.5065 80.8786 44.5065C80.2377 44.5145 79.6189 44.2727 79.1533 43.8323Z" fill="#00743D"/>
<path d="M83.2725 40.2444H83.7448V42.1093H86.1708V40.2444H86.6453V44.4444H86.1708V42.555H83.7448V44.4444H83.2725V40.2444Z" fill="#00743D"/>
<path d="M87.8335 40.2444H88.3147L89.8448 42.5373L91.3749 40.2444H91.8561V44.4444H91.3815V41.0427L89.8492 43.2935H89.827L88.2947 41.0471V44.4444H87.8335V40.2444Z" fill="#00743D"/>
<path d="M94.5999 40.2131H95.0434L96.9594 44.4442H96.4471L95.9548 43.3354H93.6686L93.1696 44.4442H92.6929L94.5999 40.2131ZM95.7708 42.903L94.815 40.7653L93.8549 42.903H95.7708Z" fill="#00743D"/>
<path d="M97.7935 40.2444H98.237L100.885 43.6106V40.2444H101.341V44.4444H100.962L98.2503 41.0006V44.4444H97.7935V40.2444Z" fill="#00743D"/>
<path d="M104.053 43.8323L104.348 43.4842C104.536 43.6749 104.761 43.8258 105.008 43.9279C105.256 44.03 105.522 44.0812 105.79 44.0785C106.353 44.0785 106.725 43.7791 106.725 43.3644V43.3533C106.725 42.9631 106.515 42.7413 105.632 42.555C104.665 42.3333 104.222 42.0317 104.222 41.342V41.331C104.222 40.6657 104.805 40.1845 105.603 40.1845C106.142 40.1691 106.668 40.3522 107.08 40.699L106.803 41.0648C106.467 40.772 106.036 40.6106 105.59 40.6103C105.044 40.6103 104.703 40.9096 104.703 41.2888V41.2999C104.703 41.6968 104.925 41.9186 105.843 42.116C106.761 42.3133 107.211 42.6637 107.211 43.3045V43.3179C107.211 44.0363 106.612 44.5064 105.778 44.5064C105.138 44.5145 104.519 44.2727 104.053 43.8323Z" fill="#00743D"/>
<path d="M108.17 40.2444H109.745C110.692 40.2444 111.317 40.7478 111.317 41.5749C111.317 42.4819 110.561 42.9498 109.665 42.9498H108.645V44.4311H108.17V40.2444ZM109.685 42.5307C110.381 42.5307 110.836 42.1581 110.836 41.6059V41.5949C110.836 40.9939 110.392 40.6812 109.707 40.6812H108.645V42.5307H109.685Z" fill="#00743D"/>
<path d="M112.183 40.2444H115.218V40.6879H112.651V42.1204H114.943V42.5639H112.651V44.0364H115.243V44.4666H112.183V40.2444Z" fill="#00743D"/>
<path d="M117.529 42.7835L115.784 40.2444H116.358L117.775 42.3444L119.205 40.2444H119.746L117.999 42.7768V44.4444H117.529V42.7835Z" fill="#00743D"/>
<path d="M120.503 40.2444H123.539V40.6879H120.977V42.1204H123.27V42.5639H120.977V44.0364H123.57V44.4666H120.503V40.2444Z" fill="#00743D"/>
<path d="M124.523 40.2432H126.33C126.768 40.2193 127.198 40.37 127.525 40.6623C127.631 40.7725 127.714 40.9024 127.77 41.0447C127.825 41.187 127.852 41.3389 127.849 41.4917C127.849 42.188 127.37 42.6004 126.709 42.7157L128 44.4321H127.417L126.199 42.8H124.998V44.4321H124.523V40.2432ZM126.297 42.3853C126.927 42.3853 127.379 42.0616 127.379 41.5205V41.5094C127.379 40.9927 126.982 40.68 126.304 40.68H125.006V42.3853H126.297Z" fill="#00743D"/>
<path d="M63.541 33.5065L78.4117 14.1342H64.0688V12.675H80.7002V13.5754L65.8384 32.9477H80.718V34.4068H63.541V33.5065Z" fill="#00743D"/>
<path d="M92.7882 12.3027C90.5655 12.3027 88.3926 12.9619 86.5445 14.1967C84.6964 15.4316 83.2559 17.1868 82.4053 19.2404C81.5547 21.294 81.3321 23.5536 81.7658 25.7337C82.1994 27.9137 83.2697 29.9162 84.8415 31.4879C86.4132 33.0596 88.4157 34.13 90.5957 34.5636C92.7758 34.9973 95.0354 34.7747 97.089 33.9241C99.1425 33.0735 100.898 31.633 102.133 29.7849C103.368 27.9367 104.027 25.7639 104.027 23.5412C104.027 20.5605 102.843 17.702 100.735 15.5944C98.6274 13.4868 95.7688 12.3027 92.7882 12.3027ZM92.7882 33.3182C90.854 33.3182 88.9632 32.7446 87.3549 31.67C85.7467 30.5953 84.4932 29.0679 83.7531 27.2808C83.013 25.4937 82.8195 23.5273 83.197 21.6303C83.5745 19.7332 84.5061 17.9907 85.874 16.6232C87.2419 15.2556 88.9846 14.3244 90.8817 13.9473C92.7789 13.5702 94.7452 13.7642 96.5321 14.5047C98.319 15.2452 99.8462 16.499 100.92 18.1075C101.995 19.716 102.568 21.6069 102.568 23.5412C102.567 26.1344 101.536 28.6212 99.7024 30.4547C97.8685 32.2882 95.3815 33.3182 92.7882 33.3182Z" fill="#00743D"/>
</g>
<defs>
<clipPath id="clip0_2867_19222">
<rect width="128" height="56.1855" fill="white"/>
</clipPath>
</defs>
</svg>
