<svg id="Layer_2" data-name="Layer 2" xmlns="http://www.w3.org/2000/svg" width="1914.39" height="737.23"
     viewBox="0 0 1914.39 737.23" fill="#FFFFFF">
  <title>logo-white</title>
  <path
    d="M1167.41,660.71c45.23,0,85.85-32.2,85.85-95.06,0-63.63-40.62-94.31-85.85-94.31s-85.87,30.68-85.87,94.31c0,62.86,40.64,95.06,85.87,95.06m199.31,27.59c0,34.5,2.3,59.79,3.07,68.22H1257.86a265.23,265.23,0,0,1-3-36.79c-17.65,26.06-56,45.23-102,45.23-107.32,0-188.58-82.8-188.58-200.09,0-113.46,76.67-198.56,184.76-198.56,65.16,0,93.52,24.54,102.73,39.1V201.5h115Z"
    transform="translate(-7.61 -201.5)"/>
  <rect x="1380.19" y="174.01" width="116.53" height="381"/>
  <g>
    <path
      d="M1720,477.08a88.95,88.95,0,1,0,89,88.94,89.06,89.06,0,0,0-89-88.94m0,291c-111.4,0-202-90.63-202-202s90.64-202,202-202,202,90.63,202,202-90.63,202-202,202"
      transform="translate(-7.61 -201.5)"/>
    <path
      d="M1445.33,202.74c36.88,0,66.4,29.5,66.4,65.65S1482.21,334,1445.33,334c-35.4,0-64.91-29.49-64.91-65.64s29.51-65.65,64.91-65.65"
      transform="translate(-7.61 -201.5)"/>
    <path
      d="M203.11,519.64l-50.61-10c-16.85-3.07-29.9-12.28-29.9-28.36,0-19.94,19.17-33,41.41-33,26.61,0,42.29,12.26,49.71,29.13H315C311.2,433,272.88,364,162.47,364,77.39,364,16.05,420.74,16.05,490.51c0,53.67,32.2,99.66,113.46,117.28l43.69,10c28.36,6.11,37.57,17.62,37.57,31.42,0,16.86-14.56,33-44.46,33-30.66,0-48.57-15-55.93-33.73H7.61C10.68,690.6,49,768,168.61,768c101.95,0,151.78-63.63,151.78-128.81,0-55.94-38.32-103.48-117.28-119.58"
      transform="translate(-7.61 -201.5)"/>
    <path
      d="M949.4,375.52H832.87v217c0,38.32-24.52,65.16-63.63,65.16-41.39,0-61.32-29.13-61.32-65.93V375.52H591.39V616.25C591.39,697.5,643.52,765,736.28,765c38.33,0,82-13.81,102-46.76,0,10,1.54,31.43,3.07,38.32H953.24a595.61,595.61,0,0,1-3.84-68.22Z"
      transform="translate(-7.61 -201.5)"/>
    <path
      d="M578.74,664.06q-1.35-5.35-2.42-10.91c0-.23-.1-.43-.14-.65-11.1,5.06-23.36,7.44-36.62,7.44-25.31,0-42.16-8.44-42.16-39.87V477.48h75.5v-102H497.4V264.36H393.15v49.06c0,35.27-19.18,62.1-67.38,62.1h-5v102h61.6V640.77c0,75.89,48.31,122.65,127.27,122.65,36.79,0,54.74-4.8,73.57-11.69,10-3.66,21.63-10.21,32.67-17.87-17.44-18.81-30.17-42.31-37-69.35l-.12-.45"
      transform="translate(-7.61 -201.5)"/>
    <path
      d="M1072.52,882.13v.2c0,11.86,7.09,18,25.33,22,15.84,3.36,18.85,7.32,18.85,13.52,0,7.3-6.57,12.26-16,12.26-9.66,0-16.92-3-25-10.35l-.43-.38-6,7,.42.36c9.19,8.2,18.91,12,30.68,12,15.23,0,25.88-8.86,25.88-21.55,0-11.53-7.36-18-24.6-21.73C1085.06,891.89,1082,888,1082,881.6c0-6.93,6.24-11.61,15.19-11.61,7.75,0,14.41,2.53,21,7.91l.47.39,5.57-7.38-.45-.35c-8.07-6.46-15.94-9.23-26.41-9.23-14.41,0-24.92,8.75-24.92,20.8"
      transform="translate(-7.61 -201.5)"/>
    <path
      d="M1172.55,871.27c12.28,0,19.33,5.67,19.33,15.51,0,9.63-7.93,16-19.76,16h-17.75V871.27Zm-27.12-8.89h-.57v75.28h9.51V911.5h17.43c14.78,0,29.7-7.69,29.7-24.82,0-14.85-11.12-24.3-28.3-24.3Z"
      transform="translate(-7.61 -201.5)"/>
  </g>
  <polygon
    points="1264.79 660.88 1210.65 660.88 1210.65 736.16 1265.91 736.16 1265.91 727.4 1220.15 727.4 1220.15 702.6 1260.6 702.6 1260.6 693.83 1220.15 693.83 1220.15 669.66 1265.4 669.66 1265.4 660.88 1264.79 660.88"/>
  <path
    d="M1354.91,862.38h-10.05s-24,35.27-24.88,36.64l-24.72-36.64h-11.53s31.13,45.26,31.31,45.56v29.72h9.64V907.84c.2-.31,31.3-45.46,31.3-45.46Z"
    transform="translate(-7.61 -201.5)"/>
  <polygon
    points="1416.87 660.88 1362.71 660.88 1362.71 736.16 1417.97 736.16 1417.97 727.4 1372.23 727.4 1372.23 702.6 1412.71 702.6 1412.71 693.83 1372.23 693.83 1372.23 669.66 1417.44 669.66 1417.44 660.88 1416.87 660.88"/>
  <path
    d="M1475.75,871.27c11.49,0,18.38,5.24,18.38,14,0,9.13-7.24,14.9-18.5,14.9h-22.2V871.27Zm-31.25-8.89h-.57v75.28h9.5v-28.8h20.35c.32.46,21.49,28.8,21.49,28.8H1507l-23-30.51c12.55-2.58,19.72-10.51,19.72-22a21.2,21.2,0,0,0-5.87-15.23c-4.9-4.87-12.52-7.58-21.49-7.58Z"
    transform="translate(-7.61 -201.5)"/>
  <polygon
    points="579.52 660.88 511.15 660.88 511.15 669.76 540.79 669.76 540.79 736.16 550.41 736.16 550.41 669.76 580.09 669.76 580.09 660.88 579.52 660.88"/>
  <polygon points="605.04 660.88 596.08 660.88 596.08 736.16 605.59 736.16 605.59 660.88 605.04 660.88"/>
  <path
    d="M634.51,882.13v.2c0,11.86,7.12,18,25.35,22,15.82,3.36,18.83,7.32,18.83,13.52,0,7.3-6.57,12.26-15.94,12.26-9.7,0-16.93-3-25-10.35l-.45-.38-5.94,7,.43.36c9.17,8.2,18.93,12,30.68,12,15.22,0,25.88-8.86,25.88-21.55,0-11.53-7.38-18-24.6-21.73C647.08,891.89,644,888,644,881.6c0-6.93,6.28-11.61,15.22-11.61,7.73,0,14.4,2.53,21,7.91l.46.39,5.57-7.38-.42-.35c-8.07-6.46-16-9.23-26.43-9.23-14.44,0-24.93,8.75-24.93,20.8"
    transform="translate(-7.61 -201.5)"/>
  <polygon
    points="759.32 660.88 750.42 660.88 750.42 693.83 708.76 693.83 708.76 660.88 699.25 660.88 699.25 736.16 708.76 736.16 708.76 702.8 750.42 702.8 750.42 736.16 759.91 736.16 759.91 660.88 759.32 660.88"/>
  <path d="M917.33,879.75l15,29.66H902.2Zm-38.51,57.9h9.82l10.23-19.58h37.22l9.66,19.58H956l-38.58-75.79Z"
        transform="translate(-7.61 -201.5)"/>
  <path d="M1030.31,862.38h-8.73v58.35l-45.86-58.35H967v75.28h9.29V878c2,2.46,47,59.69,47,59.69h7.51V862.38Z"
        transform="translate(-7.61 -201.5)"/>
  <polygon
    points="849.29 660.92 849.17 660.86 820.93 717.82 792.55 660.86 792.28 661.02 792.28 660.88 782.93 660.88 782.93 736.16 792.22 736.16 792.26 680.53 820.83 736.71 821.31 736.71 849.29 680.72 849.29 736.16 858.8 736.16 858.8 660.88 849.29 660.86 849.29 660.92"/>
  <path
    d="M445.31,905.61l30.07-43.1h-7.71l-25.59,36.92-25.6-36.92h-7.87l30.13,43V938h6.57ZM344,868.71h22.36c11.55,0,20.06,3.24,20.06,13.85s-8.51,13.9-20,13.9H344Zm0,33.89h23.56c12.28,0,20.37,3.56,20.37,14.56s-8.09,14.6-20.37,14.6H344Zm22.58-40.09H337.38V938h30.39c16.39,0,27-6.14,27-20.6,0-10-5.94-16.1-14.56-18.25,7.77-2.16,13-7.93,13-17,0-14-11-19.56-26.67-19.56"
    transform="translate(-7.61 -201.5)"/>
</svg>
