<svg width="56" height="56" viewBox="0 0 56 56" fill="none" xmlns="http://www.w3.org/2000/svg">
<path d="M19.8335 29.5649V13.65C19.8335 13.5211 19.938 13.4166 20.0668 13.4166H25.4335C25.5624 13.4166 25.6668 13.5211 25.6668 13.65V16.6833C25.6668 16.8122 25.7713 16.9166 25.9002 16.9166H31.2668C31.3957 16.9166 31.5002 17.0211 31.5002 17.15V20.1833C31.5002 20.3122 31.6046 20.4166 31.7335 20.4166H37.1002C37.229 20.4166 37.3335 20.5211 37.3335 20.65V36.75" stroke="#444647" stroke-width="1.5" stroke-linecap="round"/>
<path d="M17.5 42.3983V29.9833C17.5 29.8545 17.6045 29.75 17.7333 29.75H25.4333C25.5622 29.75 25.6667 29.8545 25.6667 29.9833V33.0167C25.6667 33.1455 25.7711 33.25 25.9 33.25H32.2667C32.3955 33.25 32.5 33.3545 32.5 33.4833V36.5167C32.5 36.6455 32.6045 36.75 32.7333 36.75H39.4333C39.5622 36.75 39.6667 36.8545 39.6667 36.9833V51.0772" stroke="#444647" stroke-width="1.5" stroke-linecap="round"/>
<line x1="26.4165" y1="9.75" x2="30.7498" y2="9.75" stroke="#444647" stroke-width="1.5" stroke-linecap="round"/>
<path d="M34.9998 20.4166V4.89996C34.9998 4.77109 34.8954 4.66663 34.7665 4.66663H22.3998C22.271 4.66663 22.1665 4.77109 22.1665 4.89996V13.4166" stroke="#444647" stroke-width="1.5" stroke-linecap="round"/>
</svg>
